Interstate-Condensed_Light.ufo
<glyph name="exclam" format="1">
  <advance width="217"/>
  <unicode hex="0021"/>
  <outline>
    <contour>
      <point x="143" y="349" type="line"/>
      <point x="128" y="166" type="line"/>
      <point x="88" y="166" type="line"/>
      <point x="74" y="349" type="line"/>
      <point x="74" y="700" type="line"/>
      <point x="143" y="700" type="line"/>
    </contour>
    <contour>
      <point x="158" y="39" type="curve" smooth="yes"/>
      <point x="158" y="11"/>
      <point x="137" y="-11"/>
      <point x="108" y="-11" type="curve" smooth="yes"/>
      <point x="80" y="-11"/>
      <point x="58" y="11"/>
      <point x="58" y="39" type="curve" smooth="yes"/>
      <point x="58" y="68"/>
      <point x="80" y="91"/>
      <point x="108" y="91" type="curve" smooth="yes"/>
      <point x="137" y="91"/>
      <point x="158" y="68"/>
    </contour>
  </outline>
</glyph>
<glyph name="quotedbl" format="1">
  <advance width="379"/>
  <unicode hex="0022"/>
  <outline>
    <contour>
      <point x="315" y="700" type="line"/>
      <point x="298" y="373" type="line"/>
      <point x="250" y="373" type="line"/>
      <point x="233" y="700" type="line"/>
    </contour>
    <contour>
      <point x="146" y="700" type="line"/>
      <point x="129" y="373" type="line"/>
      <point x="82" y="373" type="line"/>
      <point x="65" y="700" type="line"/>
    </contour>
  </outline>
</glyph>
<glyph name="numbersign" format="1">
  <advance width="519"/>
  <unicode hex="0023"/>
  <outline>
    <contour>
      <point x="481" y="174" type="line"/>
      <point x="395" y="174" type="line"/>
      <point x="395" y="0" type="line"/>
      <point x="328" y="0" type="line"/>
      <point x="328" y="174" type="line"/>
      <point x="191" y="174" type="line"/>
      <point x="191" y="0" type="line"/>
      <point x="124" y="0" type="line"/>
      <point x="124" y="174" type="line"/>
      <point x="38" y="174" type="line"/>
      <point x="38" y="236" type="line"/>
      <point x="124" y="236" type="line"/>
      <point x="124" y="465" type="line"/>
      <point x="38" y="465" type="line"/>
      <point x="38" y="527" type="line"/>
      <point x="124" y="527" type="line"/>
      <point x="124" y="700" type="line"/>
      <point x="191" y="700" type="line"/>
      <point x="191" y="527" type="line"/>
      <point x="328" y="527" type="line"/>
      <point x="328" y="700" type="line"/>
      <point x="395" y="700" type="line"/>
      <point x="395" y="527" type="line"/>
      <point x="481" y="527" type="line"/>
      <point x="481" y="465" type="line"/>
      <point x="395" y="465" type="line"/>
      <point x="395" y="236" type="line"/>
      <point x="481" y="236" type="line"/>
    </contour>
    <contour>
      <point x="328" y="236" type="line"/>
      <point x="328" y="465" type="line"/>
      <point x="191" y="465" type="line"/>
      <point x="191" y="236" type="line"/>
    </contour>
  </outline>
</glyph>
<glyph name="dollar" format="1">
  <advance width="422"/>
  <unicode hex="0024"/>
  <outline>
    <contour>
      <point x="376" y="164" type="curve" smooth="yes"/>
      <point x="376" y="76"/>
      <point x="326" y="10"/>
      <point x="241" y="-3" type="curve"/>
      <point x="241" y="-79" type="line"/>
      <point x="171" y="-79" type="line"/>
      <point x="171" y="-3" type="line"/>
      <point x="104" y="10"/>
      <point x="61" y="58"/>
      <point x="35" y="133" type="curve"/>
      <point x="99" y="162" type="line"/>
      <point x="126" y="94"/>
      <point x="158" y="59"/>
      <point x="209" y="59" type="curve" smooth="yes"/>
      <point x="269" y="59"/>
      <point x="306" y="98"/>
      <point x="306" y="156" type="curve" smooth="yes"/>
      <point x="306" y="224"/>
      <point x="277" y="274"/>
      <point x="185" y="339" type="curve" smooth="yes"/>
      <point x="86" y="409"/>
      <point x="50" y="455"/>
      <point x="50" y="547" type="curve" smooth="yes"/>
      <point x="50" y="626"/>
      <point x="96" y="688"/>
      <point x="170" y="703" type="curve"/>
      <point x="170" y="779" type="line"/>
      <point x="240" y="779" type="line"/>
      <point x="240" y="703" type="line"/>
      <point x="303" y="692"/>
      <point x="339" y="651"/>
      <point x="368" y="589" type="curve"/>
      <point x="308" y="555" type="line"/>
      <point x="280" y="610"/>
      <point x="253" y="641"/>
      <point x="202" y="641" type="curve" smooth="yes"/>
      <point x="146" y="641"/>
      <point x="120" y="596"/>
      <point x="120" y="552" type="curve" smooth="yes"/>
      <point x="120" y="496"/>
      <point x="138" y="461"/>
      <point x="229" y="397" type="curve" smooth="yes"/>
      <point x="335" y="324"/>
      <point x="376" y="261"/>
    </contour>
  </outline>
</glyph>
<glyph name="percent" format="1">
  <advance width="758"/>
  <unicode hex="0025"/>
  <outline>
    <contour>
      <point x="296" y="494" type="curve" smooth="yes"/>
      <point x="296" y="354"/>
      <point x="246" y="275"/>
      <point x="169" y="275" type="curve" smooth="yes"/>
      <point x="92" y="275"/>
      <point x="45" y="352"/>
      <point x="45" y="492" type="curve" smooth="yes"/>
      <point x="45" y="633"/>
      <point x="93" y="711"/>
      <point x="171" y="711" type="curve" smooth="yes"/>
      <point x="249" y="711"/>
      <point x="296" y="634"/>
    </contour>
    <contour>
      <point x="596" y="700" type="line"/>
      <point x="227" y="0" type="line"/>
      <point x="163" y="0" type="line"/>
      <point x="531" y="700" type="line"/>
    </contour>
    <contour>
      <point x="714" y="208" type="curve" smooth="yes"/>
      <point x="714" y="67"/>
      <point x="664" y="-11"/>
      <point x="587" y="-11" type="curve" smooth="yes"/>
      <point x="510" y="-11"/>
      <point x="463" y="65"/>
      <point x="463" y="206" type="curve" smooth="yes"/>
      <point x="463" y="347"/>
      <point x="511" y="425"/>
      <point x="589" y="425" type="curve" smooth="yes"/>
      <point x="668" y="425"/>
      <point x="714" y="348"/>
    </contour>
    <contour>
      <point x="234" y="492" type="curve" smooth="yes"/>
      <point x="234" y="595"/>
      <point x="210" y="653"/>
      <point x="169" y="653" type="curve" smooth="yes"/>
      <point x="129" y="653"/>
      <point x="107" y="597"/>
      <point x="107" y="494" type="curve" smooth="yes"/>
      <point x="107" y="391"/>
      <point x="130" y="333"/>
      <point x="171" y="333" type="curve" smooth="yes"/>
      <point x="212" y="333"/>
      <point x="234" y="392"/>
    </contour>
    <contour>
      <point x="652" y="206" type="curve" smooth="yes"/>
      <point x="652" y="309"/>
      <point x="628" y="367"/>
      <point x="587" y="367" type="curve" smooth="yes"/>
      <point x="547" y="367"/>
      <point x="525" y="311"/>
      <point x="525" y="208" type="curve" smooth="yes"/>
      <point x="525" y="104"/>
      <point x="548" y="47"/>
      <point x="589" y="47" type="curve" smooth="yes"/>
      <point x="630" y="47"/>
      <point x="652" y="106"/>
    </contour>
  </outline>
</glyph>
<glyph name="ampersand" format="1">
  <advance width="462"/>
  <unicode hex="0026"/>
  <outline>
    <contour>
      <point x="432" y="0" type="line"/>
      <point x="357" y="0" type="line"/>
      <point x="319" y="70" type="line"/>
      <point x="282" y="10"/>
      <point x="240" y="-11"/>
      <point x="185" y="-11" type="curve" smooth="yes"/>
      <point x="84" y="-11"/>
      <point x="41" y="64"/>
      <point x="41" y="170" type="curve" smooth="yes"/>
      <point x="41" y="257"/>
      <point x="82" y="326"/>
      <point x="151" y="388" type="curve"/>
      <point x="125" y="444" type="line" smooth="yes"/>
      <point x="100" y="498"/>
      <point x="84" y="532"/>
      <point x="84" y="575" type="curve" smooth="yes"/>
      <point x="84" y="652"/>
      <point x="132" y="711"/>
      <point x="221" y="711" type="curve" smooth="yes"/>
      <point x="291" y="711"/>
      <point x="330" y="669"/>
      <point x="362" y="610" type="curve"/>
      <point x="310" y="569" type="line"/>
      <point x="281" y="622"/>
      <point x="258" y="646"/>
      <point x="218" y="646" type="curve" smooth="yes"/>
      <point x="174" y="646"/>
      <point x="154" y="618"/>
      <point x="154" y="580" type="curve" smooth="yes"/>
      <point x="154" y="543"/>
      <point x="162" y="516"/>
      <point x="183" y="477" type="curve" smooth="yes"/>
      <point x="318" y="227" type="line"/>
      <point x="331" y="264"/>
      <point x="344" y="308"/>
      <point x="355" y="356" type="curve"/>
      <point x="416" y="338" type="line"/>
      <point x="398" y="263"/>
      <point x="379" y="199"/>
      <point x="357" y="148" type="curve"/>
    </contour>
    <contour>
      <point x="285" y="139" type="curve"/>
      <point x="182" y="328" type="line"/>
      <point x="136" y="285"/>
      <point x="111" y="234"/>
      <point x="111" y="176" type="curve" smooth="yes"/>
      <point x="111" y="102"/>
      <point x="138" y="54"/>
      <point x="191" y="54" type="curve" smooth="yes"/>
      <point x="227" y="54"/>
      <point x="255" y="71"/>
    </contour>
  </outline>
</glyph>
<glyph name="quotesingle" format="1">
  <advance width="209"/>
  <unicode hex="0027"/>
  <outline>
    <contour>
      <point x="146" y="700" type="line"/>
      <point x="129" y="373" type="line"/>
      <point x="81" y="373" type="line"/>
      <point x="64" y="700" type="line"/>
    </contour>
  </outline>
</glyph>
<glyph name="parenleft" format="1">
  <advance width="272"/>
  <unicode hex="0028"/>
  <outline>
    <contour>
      <point x="233" y="-81" type="curve"/>
      <point x="195" y="-110" type="line"/>
      <point x="107" y="1"/>
      <point x="47" y="133"/>
      <point x="47" y="301" type="curve" smooth="yes"/>
      <point x="47" y="474"/>
      <point x="107" y="604"/>
      <point x="195" y="715" type="curve"/>
      <point x="233" y="686" type="line"/>
      <point x="160" y="586"/>
      <point x="117" y="457"/>
      <point x="117" y="305" type="curve" smooth="yes"/>
      <point x="117" y="148"/>
      <point x="160" y="19"/>
    </contour>
  </outline>
</glyph>
<glyph name="parenright" format="1">
  <advance width="272"/>
  <unicode hex="0029"/>
  <outline>
    <contour>
      <point x="225" y="305" type="curve" smooth="yes"/>
      <point x="225" y="132"/>
      <point x="165" y="1"/>
      <point x="76" y="-110" type="curve"/>
      <point x="38" y="-81" type="line"/>
      <point x="112" y="19"/>
      <point x="155" y="149"/>
      <point x="155" y="301" type="curve" smooth="yes"/>
      <point x="155" y="458"/>
      <point x="112" y="586"/>
      <point x="38" y="686" type="curve"/>
      <point x="76" y="715" type="line"/>
      <point x="165" y="604"/>
      <point x="225" y="473"/>
    </contour>
  </outline>
</glyph>
<glyph name="asterisk" format="1">
  <advance width="388"/>
  <unicode hex="002A"/>
  <outline>
    <contour>
      <point x="344" y="497" type="line"/>
      <point x="312" y="444" type="line"/>
      <point x="210" y="521" type="line"/>
      <point x="226" y="393" type="line"/>
      <point x="164" y="393" type="line"/>
      <point x="179" y="521" type="line"/>
      <point x="77" y="443" type="line"/>
      <point x="44" y="497" type="line"/>
      <point x="160" y="546" type="line"/>
      <point x="45" y="597" type="line"/>
      <point x="77" y="650" type="line"/>
      <point x="179" y="571" type="line"/>
      <point x="164" y="699" type="line"/>
      <point x="226" y="699" type="line"/>
      <point x="210" y="572" type="line"/>
      <point x="311" y="650" type="line"/>
      <point x="344" y="597" type="line"/>
      <point x="228" y="546" type="line"/>
    </contour>
  </outline>
</glyph>
<glyph name="plus" format="1">
  <advance width="417"/>
  <unicode hex="002B"/>
  <outline>
    <contour>
      <point x="382" y="312" type="line"/>
      <point x="241" y="312" type="line"/>
      <point x="241" y="157" type="line"/>
      <point x="176" y="157" type="line"/>
      <point x="176" y="312" type="line"/>
      <point x="35" y="312" type="line"/>
      <point x="35" y="376" type="line"/>
      <point x="176" y="376" type="line"/>
      <point x="176" y="531" type="line"/>
      <point x="241" y="531" type="line"/>
      <point x="241" y="376" type="line"/>
      <point x="382" y="376" type="line"/>
    </contour>
  </outline>
</glyph>
<glyph name="comma" format="1">
  <advance width="183"/>
  <unicode hex="002C"/>
  <outline>
    <contour>
      <point x="140" y="88" type="line"/>
      <point x="88" y="-103" type="line"/>
      <point x="45" y="-103" type="line"/>
      <point x="57" y="88" type="line"/>
    </contour>
  </outline>
</glyph>
<glyph name="hyphen" format="1">
  <advance width="267"/>
  <unicode hex="002D"/>
  <unicode hex="2010"/>
  <unicode hex="2011"/>
  <outline>
    <contour>
      <point x="227" y="332" type="line"/>
      <point x="40" y="332" type="line"/>
      <point x="40" y="400" type="line"/>
      <point x="227" y="400" type="line"/>
    </contour>
  </outline>
</glyph>
<glyph name="period" format="1">
  <advance width="183"/>
  <unicode hex="002E"/>
  <outline>
    <contour>
      <point x="143" y="41" type="curve" smooth="yes"/>
      <point x="143" y="12"/>
      <point x="122" y="-11"/>
      <point x="92" y="-11" type="curve" smooth="yes"/>
      <point x="63" y="-11"/>
      <point x="41" y="12"/>
      <point x="41" y="41" type="curve" smooth="yes"/>
      <point x="41" y="70"/>
      <point x="63" y="94"/>
      <point x="92" y="94" type="curve" smooth="yes"/>
      <point x="122" y="94"/>
      <point x="143" y="70"/>
    </contour>
  </outline>
</glyph>
<glyph name="slash" format="1">
  <advance width="304"/>
  <unicode hex="002F"/>
  <outline>
    <contour>
      <point x="297" y="790" type="line"/>
      <point x="71" y="-90" type="line"/>
      <point x="7" y="-90" type="line"/>
      <point x="233" y="790" type="line"/>
    </contour>
  </outline>
</glyph>
<glyph name="zero" format="1">
  <advance width="467"/>
  <unicode hex="0030"/>
  <outline>
    <contour>
      <point x="420" y="350" type="curve" smooth="yes"/>
      <point x="420" y="116"/>
      <point x="357" y="-11"/>
      <point x="234" y="-11" type="curve" smooth="yes"/>
      <point x="110" y="-11"/>
      <point x="47" y="116"/>
      <point x="47" y="350" type="curve" smooth="yes"/>
      <point x="47" y="584"/>
      <point x="110" y="711"/>
      <point x="234" y="711" type="curve" smooth="yes"/>
      <point x="357" y="711"/>
      <point x="420" y="584"/>
    </contour>
    <contour>
      <point x="350" y="350" type="curve" smooth="yes"/>
      <point x="350" y="548"/>
      <point x="311" y="646"/>
      <point x="233" y="646" type="curve" smooth="yes"/>
      <point x="155" y="646"/>
      <point x="117" y="548"/>
      <point x="117" y="350" type="curve" smooth="yes"/>
      <point x="117" y="152"/>
      <point x="157" y="54"/>
      <point x="234" y="54" type="curve" smooth="yes"/>
      <point x="312" y="54"/>
      <point x="350" y="152"/>
    </contour>
  </outline>
</glyph>
<glyph name="one" format="1">
  <advance width="249"/>
  <unicode hex="0031"/>
  <outline>
    <contour>
      <point x="176" y="0" type="line"/>
      <point x="108" y="0" type="line"/>
      <point x="108" y="577" type="line"/>
      <point x="12" y="577" type="line"/>
      <point x="12" y="623" type="line"/>
      <point x="76" y="628"/>
      <point x="110" y="644"/>
      <point x="122" y="700" type="curve"/>
      <point x="176" y="700" type="line"/>
    </contour>
  </outline>
</glyph>
<glyph name="two" format="1">
  <advance width="413"/>
  <unicode hex="0032"/>
  <outline>
    <contour>
      <point x="364" y="0" type="line"/>
      <point x="32" y="0" type="line"/>
      <point x="35" y="188"/>
      <point x="88" y="270"/>
      <point x="197" y="372" type="curve" smooth="yes"/>
      <point x="267" y="438"/>
      <point x="290" y="481"/>
      <point x="290" y="536" type="curve" smooth="yes"/>
      <point x="290" y="605"/>
      <point x="259" y="646"/>
      <point x="200" y="646" type="curve" smooth="yes"/>
      <point x="150" y="646"/>
      <point x="123" y="614"/>
      <point x="95" y="554" type="curve"/>
      <point x="35" y="584" type="line"/>
      <point x="68" y="655"/>
      <point x="113" y="711"/>
      <point x="206" y="711" type="curve" smooth="yes"/>
      <point x="302" y="711"/>
      <point x="361" y="646"/>
      <point x="361" y="539" type="curve" smooth="yes"/>
      <point x="361" y="457"/>
      <point x="322" y="400"/>
      <point x="241" y="322" type="curve" smooth="yes"/>
      <point x="139" y="224"/>
      <point x="112" y="164"/>
      <point x="107" y="66" type="curve"/>
      <point x="364" y="66" type="line"/>
    </contour>
  </outline>
</glyph>
<glyph name="three" format="1">
  <advance width="419"/>
  <unicode hex="0033"/>
  <outline>
    <contour>
      <point x="367" y="201" type="curve" smooth="yes"/>
      <point x="367" y="70"/>
      <point x="299" y="-11"/>
      <point x="189" y="-11" type="curve" smooth="yes"/>
      <point x="110" y="-11"/>
      <point x="58" y="36"/>
      <point x="26" y="121" type="curve"/>
      <point x="86" y="152" type="line"/>
      <point x="112" y="85"/>
      <point x="146" y="54"/>
      <point x="193" y="54" type="curve" smooth="yes"/>
      <point x="266" y="54"/>
      <point x="296" y="115"/>
      <point x="296" y="198" type="curve" smooth="yes"/>
      <point x="296" y="297"/>
      <point x="254" y="340"/>
      <point x="175" y="340" type="curve" smooth="yes"/>
      <point x="148" y="340" type="line"/>
      <point x="148" y="404" type="line"/>
      <point x="181" y="404" type="line" smooth="yes"/>
      <point x="250" y="404"/>
      <point x="282" y="447"/>
      <point x="282" y="535" type="curve" smooth="yes"/>
      <point x="282" y="601"/>
      <point x="253" y="646"/>
      <point x="191" y="646" type="curve" smooth="yes"/>
      <point x="147" y="646"/>
      <point x="122" y="619"/>
      <point x="93" y="559" type="curve"/>
      <point x="37" y="588" type="line"/>
      <point x="71" y="661"/>
      <point x="112" y="711"/>
      <point x="194" y="711" type="curve" smooth="yes"/>
      <point x="290" y="711"/>
      <point x="352" y="641"/>
      <point x="352" y="540" type="curve" smooth="yes"/>
      <point x="352" y="446"/>
      <point x="319" y="401"/>
      <point x="268" y="375" type="curve"/>
      <point x="322" y="359"/>
      <point x="367" y="319"/>
    </contour>
  </outline>
</glyph>
<glyph name="four" format="1">
  <advance width="441"/>
  <unicode hex="0034"/>
  <outline>
    <contour>
      <point x="411" y="184" type="line"/>
      <point x="346" y="184" type="line"/>
      <point x="346" y="0" type="line"/>
      <point x="282" y="0" type="line"/>
      <point x="282" y="184" type="line"/>
      <point x="24" y="184" type="line"/>
      <point x="24" y="237" type="line"/>
      <point x="283" y="700" type="line"/>
      <point x="346" y="700" type="line"/>
      <point x="346" y="244" type="line"/>
      <point x="411" y="244" type="line"/>
    </contour>
    <contour>
      <point x="283" y="580" type="curve"/>
      <point x="269" y="552"/>
      <point x="242" y="504"/>
      <point x="221" y="466" type="curve" smooth="yes"/>
      <point x="153" y="345" type="line" smooth="yes"/>
      <point x="132" y="308"/>
      <point x="110" y="270"/>
      <point x="95" y="244" type="curve"/>
      <point x="99" y="244"/>
      <point x="128" y="244"/>
      <point x="134" y="244" type="curve" smooth="yes"/>
      <point x="282" y="244" type="line"/>
      <point x="282" y="503" type="line" smooth="yes"/>
      <point x="282" y="524"/>
      <point x="283" y="562"/>
    </contour>
  </outline>
</glyph>
<glyph name="five" format="1">
  <advance width="435"/>
  <unicode hex="0035"/>
  <outline>
    <contour>
      <point x="388" y="236" type="curve" smooth="yes"/>
      <point x="388" y="84"/>
      <point x="326" y="-11"/>
      <point x="203" y="-11" type="curve" smooth="yes"/>
      <point x="119" y="-11"/>
      <point x="72" y="47"/>
      <point x="43" y="109" type="curve"/>
      <point x="100" y="143" type="line"/>
      <point x="123" y="96"/>
      <point x="153" y="54"/>
      <point x="208" y="54" type="curve" smooth="yes"/>
      <point x="287" y="54"/>
      <point x="317" y="128"/>
      <point x="317" y="232" type="curve" smooth="yes"/>
      <point x="317" y="315"/>
      <point x="284" y="386"/>
      <point x="214" y="386" type="curve" smooth="yes"/>
      <point x="167" y="386"/>
      <point x="140" y="364"/>
      <point x="114" y="328" type="curve"/>
      <point x="53" y="345" type="line"/>
      <point x="70" y="700" type="line"/>
      <point x="364" y="700" type="line"/>
      <point x="364" y="632" type="line"/>
      <point x="133" y="632" type="line"/>
      <point x="119" y="410" type="line"/>
      <point x="144" y="437"/>
      <point x="176" y="451"/>
      <point x="223" y="451" type="curve" smooth="yes"/>
      <point x="330" y="451"/>
      <point x="388" y="373"/>
    </contour>
  </outline>
</glyph>
<glyph name="six" format="1">
  <advance width="439"/>
  <unicode hex="0036"/>
  <outline>
    <contour>
      <point x="406" y="209" type="curve" smooth="yes"/>
      <point x="406" y="79"/>
      <point x="334" y="-11"/>
      <point x="222" y="-11" type="curve" smooth="yes"/>
      <point x="115" y="-11"/>
      <point x="44" y="72"/>
      <point x="44" y="243" type="curve" smooth="yes"/>
      <point x="44" y="461"/>
      <point x="120" y="644"/>
      <point x="315" y="711" type="curve"/>
      <point x="337" y="653" type="line"/>
      <point x="214" y="609"/>
      <point x="137" y="505"/>
      <point x="114" y="361" type="curve"/>
      <point x="142" y="397"/>
      <point x="181" y="423"/>
      <point x="240" y="423" type="curve" smooth="yes"/>
      <point x="343" y="423"/>
      <point x="406" y="338"/>
    </contour>
    <contour>
      <point x="336" y="206" type="curve" smooth="yes"/>
      <point x="336" y="297"/>
      <point x="298" y="358"/>
      <point x="226" y="358" type="curve" smooth="yes"/>
      <point x="150" y="358"/>
      <point x="113" y="292"/>
      <point x="113" y="208" type="curve" smooth="yes"/>
      <point x="113" y="117"/>
      <point x="158" y="54"/>
      <point x="224" y="54" type="curve" smooth="yes"/>
      <point x="295" y="54"/>
      <point x="336" y="117"/>
    </contour>
  </outline>
</glyph>
<glyph name="seven" format="1">
  <advance width="407"/>
  <unicode hex="0037"/>
  <outline>
    <contour>
      <point x="355" y="636" type="line"/>
      <point x="235" y="460"/>
      <point x="189" y="270"/>
      <point x="187" y="0" type="curve"/>
      <point x="117" y="0" type="line"/>
      <point x="120" y="249"/>
      <point x="167" y="464"/>
      <point x="281" y="634" type="curve"/>
      <point x="18" y="634" type="line"/>
      <point x="18" y="700" type="line"/>
      <point x="355" y="700" type="line"/>
    </contour>
  </outline>
</glyph>
<glyph name="eight" format="1">
  <advance width="448"/>
  <unicode hex="0038"/>
  <outline>
    <contour>
      <point x="404" y="204" type="curve" smooth="yes"/>
      <point x="404" y="75"/>
      <point x="330" y="-11"/>
      <point x="222" y="-11" type="curve" smooth="yes"/>
      <point x="117" y="-11"/>
      <point x="44" y="76"/>
      <point x="44" y="203" type="curve" smooth="yes"/>
      <point x="44" y="289"/>
      <point x="80" y="348"/>
      <point x="137" y="380" type="curve"/>
      <point x="93" y="406"/>
      <point x="59" y="459"/>
      <point x="59" y="528" type="curve" smooth="yes"/>
      <point x="59" y="622"/>
      <point x="122" y="711"/>
      <point x="224" y="711" type="curve" smooth="yes"/>
      <point x="330" y="711"/>
      <point x="389" y="620"/>
      <point x="389" y="529" type="curve" smooth="yes"/>
      <point x="389" y="460"/>
      <point x="356" y="411"/>
      <point x="310" y="382" type="curve"/>
      <point x="368" y="351"/>
      <point x="404" y="291"/>
    </contour>
    <contour>
      <point x="320" y="527" type="curve" smooth="yes"/>
      <point x="320" y="586"/>
      <point x="290" y="646"/>
      <point x="223" y="646" type="curve" smooth="yes"/>
      <point x="158" y="646"/>
      <point x="128" y="588"/>
      <point x="128" y="529" type="curve" smooth="yes"/>
      <point x="128" y="466"/>
      <point x="165" y="412"/>
      <point x="224" y="412" type="curve" smooth="yes"/>
      <point x="282" y="412"/>
      <point x="320" y="465"/>
    </contour>
    <contour>
      <point x="334" y="203" type="curve" smooth="yes"/>
      <point x="334" y="280"/>
      <point x="293" y="347"/>
      <point x="223" y="347" type="curve" smooth="yes"/>
      <point x="152" y="347"/>
      <point x="113" y="281"/>
      <point x="113" y="204" type="curve" smooth="yes"/>
      <point x="113" y="124"/>
      <point x="152" y="54"/>
      <point x="225" y="54" type="curve" smooth="yes"/>
      <point x="297" y="54"/>
      <point x="334" y="122"/>
    </contour>
  </outline>
</glyph>
<glyph name="nine" format="1">
  <advance width="439"/>
  <unicode hex="0039"/>
  <outline>
    <contour>
      <point x="395" y="457" type="curve" smooth="yes"/>
      <point x="395" y="239"/>
      <point x="319" y="56"/>
      <point x="124" y="-11" type="curve"/>
      <point x="102" y="47" type="line"/>
      <point x="225" y="91"/>
      <point x="302" y="195"/>
      <point x="325" y="339" type="curve"/>
      <point x="297" y="303"/>
      <point x="258" y="277"/>
      <point x="199" y="277" type="curve" smooth="yes"/>
      <point x="96" y="277"/>
      <point x="33" y="362"/>
      <point x="33" y="491" type="curve" smooth="yes"/>
      <point x="33" y="621"/>
      <point x="105" y="711"/>
      <point x="217" y="711" type="curve" smooth="yes"/>
      <point x="324" y="711"/>
      <point x="395" y="628"/>
    </contour>
    <contour>
      <point x="326" y="492" type="curve" smooth="yes"/>
      <point x="326" y="583"/>
      <point x="281" y="646"/>
      <point x="215" y="646" type="curve" smooth="yes"/>
      <point x="144" y="646"/>
      <point x="103" y="583"/>
      <point x="103" y="494" type="curve" smooth="yes"/>
      <point x="103" y="403"/>
      <point x="141" y="342"/>
      <point x="213" y="342" type="curve" smooth="yes"/>
      <point x="289" y="342"/>
      <point x="326" y="408"/>
    </contour>
  </outline>
</glyph>
<glyph name="semicolon" format="1">
  <advance width="183"/>
  <unicode hex="003B"/>
  <outline>
    <contour>
      <point x="143" y="483" type="curve" smooth="yes"/>
      <point x="143" y="454"/>
      <point x="122" y="431"/>
      <point x="92" y="431" type="curve" smooth="yes"/>
      <point x="63" y="431"/>
      <point x="41" y="454"/>
      <point x="41" y="483" type="curve" smooth="yes"/>
      <point x="41" y="512"/>
      <point x="63" y="536"/>
      <point x="92" y="536" type="curve" smooth="yes"/>
      <point x="122" y="536"/>
      <point x="143" y="512"/>
    </contour>
    <contour>
      <point x="132" y="88" type="line"/>
      <point x="80" y="-103" type="line"/>
      <point x="38" y="-103" type="line"/>
      <point x="49" y="88" type="line"/>
    </contour>
  </outline>
</glyph>
<glyph name="less" format="1">
  <advance width="301"/>
  <unicode hex="003C"/>
  <outline>
    <contour>
      <point x="256" y="98" type="line"/>
      <point x="37" y="317" type="line"/>
      <point x="37" y="371" type="line"/>
      <point x="256" y="590" type="line"/>
      <point x="256" y="502" type="line"/>
      <point x="91" y="345" type="line"/>
      <point x="256" y="187" type="line"/>
    </contour>
  </outline>
</glyph>
<glyph name="equal" format="1">
  <advance width="439"/>
  <unicode hex="003D"/>
  <outline>
    <contour>
      <point x="381" y="405" type="line"/>
      <point x="58" y="405" type="line"/>
      <point x="58" y="471" type="line"/>
      <point x="381" y="471" type="line"/>
    </contour>
    <contour>
      <point x="381" y="217" type="line"/>
      <point x="58" y="217" type="line"/>
      <point x="58" y="283" type="line"/>
      <point x="381" y="283" type="line"/>
    </contour>
  </outline>
</glyph>
<glyph name="question" format="1">
  <advance width="402"/>
  <unicode hex="003F"/>
  <outline>
    <contour>
      <point x="358" y="544" type="curve" smooth="yes"/>
      <point x="358" y="467"/>
      <point x="324" y="414"/>
      <point x="269" y="363" type="curve" smooth="yes"/>
      <point x="222" y="319"/>
      <point x="212" y="278"/>
      <point x="212" y="175" type="curve"/>
      <point x="146" y="175" type="line"/>
      <point x="146" y="302"/>
      <point x="157" y="346"/>
      <point x="230" y="413" type="curve" smooth="yes"/>
      <point x="269" y="449"/>
      <point x="287" y="490"/>
      <point x="287" y="540" type="curve" smooth="yes"/>
      <point x="287" y="602"/>
      <point x="254" y="646"/>
      <point x="197" y="646" type="curve" smooth="yes"/>
      <point x="148" y="646"/>
      <point x="121" y="618"/>
      <point x="92" y="551" type="curve"/>
      <point x="32" y="578" type="line"/>
      <point x="63" y="658"/>
      <point x="113" y="711"/>
      <point x="202" y="711" type="curve" smooth="yes"/>
      <point x="300" y="711"/>
      <point x="358" y="644"/>
    </contour>
    <contour>
      <point x="228" y="39" type="curve" smooth="yes"/>
      <point x="228" y="11"/>
      <point x="207" y="-11"/>
      <point x="178" y="-11" type="curve" smooth="yes"/>
      <point x="150" y="-11"/>
      <point x="129" y="11"/>
      <point x="129" y="39" type="curve" smooth="yes"/>
      <point x="129" y="68"/>
      <point x="150" y="91"/>
      <point x="178" y="91" type="curve" smooth="yes"/>
      <point x="207" y="91"/>
      <point x="228" y="68"/>
    </contour>
  </outline>
</glyph>
<glyph name="A" format="1">
  <advance width="482"/>
  <unicode hex="0041"/>
  <outline>
    <contour>
      <point x="444" y="0" type="line"/>
      <point x="373" y="0" type="line"/>
      <point x="332" y="182" type="line"/>
      <point x="149" y="182" type="line"/>
      <point x="107" y="0" type="line"/>
      <point x="38" y="0" type="line"/>
      <point x="204" y="700" type="line"/>
      <point x="278" y="700" type="line"/>
    </contour>
    <contour>
      <point x="317" y="247" type="line"/>
      <point x="278" y="422" type="line" smooth="yes"/>
      <point x="263" y="488"/>
      <point x="248" y="561"/>
      <point x="240" y="613" type="curve"/>
      <point x="233" y="561"/>
      <point x="217" y="486"/>
      <point x="202" y="421" type="curve" smooth="yes"/>
      <point x="163" y="247" type="line"/>
    </contour>
  </outline>
</glyph>
<glyph name="B" format="1">
  <advance width="459"/>
  <unicode hex="0042"/>
  <outline>
    <contour>
      <point x="414" y="205" type="curve" smooth="yes"/>
      <point x="414" y="63"/>
      <point x="338" y="0"/>
      <point x="228" y="0" type="curve" smooth="yes"/>
      <point x="70" y="0" type="line"/>
      <point x="70" y="700" type="line"/>
      <point x="228" y="700" type="line" smooth="yes"/>
      <point x="334" y="700"/>
      <point x="394" y="635"/>
      <point x="394" y="523" type="curve" smooth="yes"/>
      <point x="394" y="439"/>
      <point x="357" y="396"/>
      <point x="309" y="373" type="curve"/>
      <point x="364" y="351"/>
      <point x="414" y="308"/>
    </contour>
    <contour>
      <point x="324" y="521" type="curve" smooth="yes"/>
      <point x="324" y="595"/>
      <point x="290" y="635"/>
      <point x="225" y="635" type="curve" smooth="yes"/>
      <point x="140" y="635" type="line"/>
      <point x="140" y="404" type="line"/>
      <point x="222" y="404" type="line" smooth="yes"/>
      <point x="295" y="404"/>
      <point x="324" y="455"/>
    </contour>
    <contour>
      <point x="344" y="201" type="curve" smooth="yes"/>
      <point x="344" y="290"/>
      <point x="298" y="339"/>
      <point x="223" y="339" type="curve" smooth="yes"/>
      <point x="140" y="339" type="line"/>
      <point x="140" y="65" type="line"/>
      <point x="232" y="65" type="line" smooth="yes"/>
      <point x="308" y="65"/>
      <point x="344" y="112"/>
    </contour>
  </outline>
</glyph>
<glyph name="C" format="1">
  <advance width="453"/>
  <unicode hex="0043"/>
  <outline>
    <contour>
      <point x="414" y="137" type="line"/>
      <point x="384" y="48"/>
      <point x="334" y="-11"/>
      <point x="242" y="-11" type="curve" smooth="yes"/>
      <point x="113" y="-11"/>
      <point x="50" y="125"/>
      <point x="50" y="350" type="curve" smooth="yes"/>
      <point x="50" y="572"/>
      <point x="117" y="711"/>
      <point x="244" y="711" type="curve" smooth="yes"/>
      <point x="331" y="711"/>
      <point x="379" y="656"/>
      <point x="412" y="561" type="curve"/>
      <point x="349" y="533" type="line"/>
      <point x="320" y="619"/>
      <point x="292" y="646"/>
      <point x="243" y="646" type="curve" smooth="yes"/>
      <point x="166" y="646"/>
      <point x="120" y="541"/>
      <point x="120" y="350" type="curve" smooth="yes"/>
      <point x="120" y="155"/>
      <point x="168" y="54"/>
      <point x="246" y="54" type="curve" smooth="yes"/>
      <point x="298" y="54"/>
      <point x="328" y="89"/>
      <point x="356" y="166" type="curve"/>
    </contour>
  </outline>
</glyph>
<glyph name="D" format="1">
  <advance width="477"/>
  <unicode hex="0044"/>
  <outline>
    <contour>
      <point x="428" y="355" type="curve" smooth="yes"/>
      <point x="428" y="110"/>
      <point x="340" y="0"/>
      <point x="195" y="0" type="curve" smooth="yes"/>
      <point x="70" y="0" type="line"/>
      <point x="70" y="700" type="line"/>
      <point x="206" y="700" type="line" smooth="yes"/>
      <point x="354" y="700"/>
      <point x="428" y="581"/>
    </contour>
    <contour>
      <point x="358" y="352" type="curve" smooth="yes"/>
      <point x="358" y="543"/>
      <point x="305" y="635"/>
      <point x="203" y="635" type="curve" smooth="yes"/>
      <point x="140" y="635" type="line"/>
      <point x="140" y="65" type="line"/>
      <point x="202" y="65" type="line" smooth="yes"/>
      <point x="298" y="65"/>
      <point x="358" y="144"/>
    </contour>
  </outline>
</glyph>
<glyph name="E" format="1">
  <advance width="421"/>
  <unicode hex="0045"/>
  <outline>
    <contour>
      <point x="381" y="0" type="line"/>
      <point x="70" y="0" type="line"/>
      <point x="70" y="700" type="line"/>
      <point x="369" y="700" type="line"/>
      <point x="369" y="635" type="line"/>
      <point x="140" y="635" type="line"/>
      <point x="140" y="407" type="line"/>
      <point x="284" y="407" type="line"/>
      <point x="284" y="341" type="line"/>
      <point x="140" y="341" type="line"/>
      <point x="140" y="65" type="line"/>
      <point x="381" y="65" type="line"/>
    </contour>
  </outline>
</glyph>
<glyph name="F" format="1">
  <advance width="403"/>
  <unicode hex="0046"/>
  <outline>
    <contour>
      <point x="368" y="635" type="line"/>
      <point x="140" y="635" type="line"/>
      <point x="140" y="399" type="line"/>
      <point x="286" y="399" type="line"/>
      <point x="286" y="333" type="line"/>
      <point x="140" y="333" type="line"/>
      <point x="140" y="0" type="line"/>
      <point x="70" y="0" type="line"/>
      <point x="70" y="700" type="line"/>
      <point x="368" y="700" type="line"/>
    </contour>
  </outline>
</glyph>
<glyph name="G" format="1">
  <advance width="475"/>
  <unicode hex="0047"/>
  <outline>
    <contour>
      <point x="428" y="244" type="line" smooth="yes"/>
      <point x="428" y="96"/>
      <point x="368" y="-11"/>
      <point x="243" y="-11" type="curve" smooth="yes"/>
      <point x="113" y="-11"/>
      <point x="50" y="125"/>
      <point x="50" y="350" type="curve" smooth="yes"/>
      <point x="50" y="572"/>
      <point x="115" y="711"/>
      <point x="246" y="711" type="curve" smooth="yes"/>
      <point x="337" y="711"/>
      <point x="382" y="648"/>
      <point x="412" y="561" type="curve"/>
      <point x="349" y="533" type="line"/>
      <point x="320" y="619"/>
      <point x="292" y="646"/>
      <point x="244" y="646" type="curve" smooth="yes"/>
      <point x="166" y="646"/>
      <point x="120" y="543"/>
      <point x="120" y="350" type="curve" smooth="yes"/>
      <point x="120" y="155"/>
      <point x="168" y="54"/>
      <point x="247" y="54" type="curve" smooth="yes"/>
      <point x="322" y="54"/>
      <point x="360" y="116"/>
      <point x="360" y="237" type="curve" smooth="yes"/>
      <point x="360" y="290" type="line"/>
      <point x="266" y="290" type="line"/>
      <point x="266" y="356" type="line"/>
      <point x="428" y="356" type="line"/>
    </contour>
  </outline>
</glyph>
<glyph name="H" format="1">
  <advance width="504"/>
  <unicode hex="0048"/>
  <outline>
    <contour>
      <point x="434" y="0" type="line"/>
      <point x="365" y="0" type="line"/>
      <point x="365" y="338" type="line"/>
      <point x="140" y="338" type="line"/>
      <point x="140" y="0" type="line"/>
      <point x="70" y="0" type="line"/>
      <point x="70" y="700" type="line"/>
      <point x="140" y="700" type="line"/>
      <point x="140" y="403" type="line"/>
      <point x="365" y="403" type="line"/>
      <point x="365" y="700" type="line"/>
      <point x="434" y="700" type="line"/>
    </contour>
  </outline>
</glyph>
<glyph name="I" format="1">
  <advance width="220"/>
  <unicode hex="0049"/>
  <outline>
    <contour>
      <point x="145" y="0" type="line"/>
      <point x="75" y="0" type="line"/>
      <point x="75" y="700" type="line"/>
      <point x="145" y="700" type="line"/>
    </contour>
  </outline>
</glyph>
<glyph name="J" format="1">
  <advance width="422"/>
  <unicode hex="004A"/>
  <outline>
    <contour>
      <point x="355" y="203" type="line" smooth="yes"/>
      <point x="355" y="61"/>
      <point x="296" y="-11"/>
      <point x="189" y="-11" type="curve" smooth="yes"/>
      <point x="95" y="-11"/>
      <point x="47" y="54"/>
      <point x="25" y="162" type="curve"/>
      <point x="92" y="179" type="line"/>
      <point x="110" y="92"/>
      <point x="138" y="54"/>
      <point x="192" y="54" type="curve" smooth="yes"/>
      <point x="255" y="54"/>
      <point x="285" y="99"/>
      <point x="285" y="205" type="curve" smooth="yes"/>
      <point x="285" y="700" type="line"/>
      <point x="355" y="700" type="line"/>
    </contour>
  </outline>
</glyph>
<glyph name="K" format="1">
  <advance width="458"/>
  <unicode hex="004B"/>
  <outline>
    <contour>
      <point x="427" y="0" type="line"/>
      <point x="351" y="0" type="line"/>
      <point x="208" y="368" type="line"/>
      <point x="140" y="258" type="line"/>
      <point x="140" y="0" type="line"/>
      <point x="70" y="0" type="line"/>
      <point x="70" y="700" type="line"/>
      <point x="140" y="700" type="line"/>
      <point x="140" y="469" type="line" smooth="yes"/>
      <point x="140" y="440"/>
      <point x="139" y="380"/>
      <point x="139" y="356" type="curve"/>
      <point x="158" y="391"/>
      <point x="192" y="452"/>
      <point x="216" y="494" type="curve" smooth="yes"/>
      <point x="336" y="700" type="line"/>
      <point x="411" y="700" type="line"/>
      <point x="256" y="438" type="line"/>
    </contour>
  </outline>
</glyph>
<glyph name="L" format="1">
  <advance width="400"/>
  <unicode hex="004C"/>
  <outline>
    <contour>
      <point x="363" y="0" type="line"/>
      <point x="70" y="0" type="line"/>
      <point x="70" y="700" type="line"/>
      <point x="140" y="700" type="line"/>
      <point x="140" y="65" type="line"/>
      <point x="363" y="65" type="line"/>
    </contour>
  </outline>
</glyph>
<glyph name="M" format="1">
  <advance width="581"/>
  <unicode hex="004D"/>
  <outline>
    <contour>
      <point x="511" y="0" type="line"/>
      <point x="446" y="0" type="line"/>
      <point x="446" y="419" type="line" smooth="yes"/>
      <point x="446" y="455"/>
      <point x="447" y="512"/>
      <point x="447" y="542" type="curve"/>
      <point x="440" y="500"/>
      <point x="427" y="456"/>
      <point x="412" y="403" type="curve" smooth="yes"/>
      <point x="290" y="-20" type="line"/>
      <point x="168" y="403" type="line" smooth="yes"/>
      <point x="153" y="456"/>
      <point x="142" y="499"/>
      <point x="134" y="542" type="curve"/>
      <point x="134" y="512"/>
      <point x="135" y="459"/>
      <point x="135" y="419" type="curve" smooth="yes"/>
      <point x="135" y="0" type="line"/>
      <point x="70" y="0" type="line"/>
      <point x="70" y="700" type="line"/>
      <point x="147" y="700" type="line"/>
      <point x="253" y="332" type="line" smooth="yes"/>
      <point x="271" y="271"/>
      <point x="285" y="213"/>
      <point x="290" y="166" type="curve"/>
      <point x="296" y="213"/>
      <point x="311" y="271"/>
      <point x="329" y="332" type="curve" smooth="yes"/>
      <point x="435" y="700" type="line"/>
      <point x="511" y="700" type="line"/>
    </contour>
  </outline>
</glyph>
<glyph name="N" format="1">
  <advance width="504"/>
  <unicode hex="004E"/>
  <outline>
    <contour>
      <point x="434" y="0" type="line"/>
      <point x="375" y="0" type="line"/>
      <point x="207" y="384" type="line" smooth="yes"/>
      <point x="182" y="442"/>
      <point x="152" y="512"/>
      <point x="135" y="556" type="curve"/>
      <point x="135" y="529"/>
      <point x="136" y="462"/>
      <point x="136" y="420" type="curve" smooth="yes"/>
      <point x="136" y="0" type="line"/>
      <point x="70" y="0" type="line"/>
      <point x="70" y="700" type="line"/>
      <point x="138" y="700" type="line"/>
      <point x="297" y="334" type="line" smooth="yes"/>
      <point x="324" y="271"/>
      <point x="354" y="201"/>
      <point x="370" y="162" type="curve"/>
      <point x="369" y="188"/>
      <point x="368" y="256"/>
      <point x="368" y="298" type="curve" smooth="yes"/>
      <point x="368" y="700" type="line"/>
      <point x="434" y="700" type="line"/>
    </contour>
  </outline>
</glyph>
<glyph name="O" format="1">
  <advance width="500"/>
  <unicode hex="004F"/>
  <outline>
    <contour>
      <point x="450" y="350" type="curve" smooth="yes"/>
      <point x="450" y="124"/>
      <point x="381" y="-11"/>
      <point x="249" y="-11" type="curve" smooth="yes"/>
      <point x="117" y="-11"/>
      <point x="50" y="123"/>
      <point x="50" y="350" type="curve" smooth="yes"/>
      <point x="50" y="576"/>
      <point x="118" y="711"/>
      <point x="250" y="711" type="curve" smooth="yes"/>
      <point x="382" y="711"/>
      <point x="450" y="577"/>
    </contour>
    <contour>
      <point x="380" y="350" type="curve" smooth="yes"/>
      <point x="380" y="545"/>
      <point x="327" y="646"/>
      <point x="248" y="646" type="curve" smooth="yes"/>
      <point x="170" y="646"/>
      <point x="120" y="546"/>
      <point x="120" y="350" type="curve" smooth="yes"/>
      <point x="120" y="155"/>
      <point x="172" y="54"/>
      <point x="251" y="54" type="curve" smooth="yes"/>
      <point x="329" y="54"/>
      <point x="380" y="154"/>
    </contour>
  </outline>
</glyph>
<glyph name="P" format="1">
  <advance width="447"/>
  <unicode hex="0050"/>
  <outline>
    <contour>
      <point x="413" y="506" type="curve" smooth="yes"/>
      <point x="413" y="367"/>
      <point x="328" y="302"/>
      <point x="223" y="302" type="curve" smooth="yes"/>
      <point x="140" y="302" type="line"/>
      <point x="140" y="0" type="line"/>
      <point x="70" y="0" type="line"/>
      <point x="70" y="700" type="line"/>
      <point x="232" y="700" type="line" smooth="yes"/>
      <point x="335" y="700"/>
      <point x="413" y="640"/>
    </contour>
    <contour>
      <point x="343" y="502" type="curve" smooth="yes"/>
      <point x="343" y="589"/>
      <point x="302" y="635"/>
      <point x="229" y="635" type="curve" smooth="yes"/>
      <point x="140" y="635" type="line"/>
      <point x="140" y="367" type="line"/>
      <point x="226" y="367" type="line" smooth="yes"/>
      <point x="302" y="367"/>
      <point x="343" y="414"/>
    </contour>
  </outline>
</glyph>
<glyph name="Q" format="1">
  <advance width="500"/>
  <unicode hex="0051"/>
  <outline>
    <contour>
      <point x="450" y="350" type="curve" smooth="yes"/>
      <point x="450" y="225"/>
      <point x="425" y="127"/>
      <point x="380" y="65" type="curve"/>
      <point x="421" y="9" type="line"/>
      <point x="370" y="-30" type="line"/>
      <point x="336" y="18" type="line"/>
      <point x="312" y="-1"/>
      <point x="282" y="-11"/>
      <point x="249" y="-11" type="curve" smooth="yes"/>
      <point x="117" y="-11"/>
      <point x="50" y="123"/>
      <point x="50" y="350" type="curve" smooth="yes"/>
      <point x="50" y="576"/>
      <point x="118" y="711"/>
      <point x="250" y="711" type="curve" smooth="yes"/>
      <point x="382" y="711"/>
      <point x="450" y="577"/>
    </contour>
    <contour>
      <point x="380" y="350" type="curve" smooth="yes"/>
      <point x="380" y="545"/>
      <point x="327" y="646"/>
      <point x="248" y="646" type="curve" smooth="yes"/>
      <point x="170" y="646"/>
      <point x="120" y="546"/>
      <point x="120" y="350" type="curve" smooth="yes"/>
      <point x="120" y="155"/>
      <point x="172" y="54"/>
      <point x="251" y="54" type="curve" smooth="yes"/>
      <point x="269" y="54"/>
      <point x="285" y="58"/>
      <point x="299" y="68" type="curve"/>
      <point x="247" y="140" type="line"/>
      <point x="297" y="179" type="line"/>
      <point x="339" y="120" type="line"/>
      <point x="365" y="166"/>
      <point x="380" y="241"/>
    </contour>
  </outline>
</glyph>
<glyph name="R" format="1">
  <advance width="465"/>
  <unicode hex="0052"/>
  <outline>
    <contour>
      <point x="419" y="0" type="line"/>
      <point x="342" y="0" type="line"/>
      <point x="237" y="318" type="line"/>
      <point x="228" y="317"/>
      <point x="153" y="317"/>
      <point x="140" y="317" type="curve"/>
      <point x="140" y="0" type="line"/>
      <point x="70" y="0" type="line"/>
      <point x="70" y="700" type="line"/>
      <point x="238" y="700" type="line" smooth="yes"/>
      <point x="339" y="700"/>
      <point x="417" y="640"/>
      <point x="417" y="513" type="curve" smooth="yes"/>
      <point x="417" y="421"/>
      <point x="374" y="362"/>
      <point x="309" y="335" type="curve"/>
    </contour>
    <contour>
      <point x="347" y="509" type="curve" smooth="yes"/>
      <point x="347" y="591"/>
      <point x="306" y="635"/>
      <point x="235" y="635" type="curve" smooth="yes"/>
      <point x="140" y="635" type="line"/>
      <point x="140" y="380" type="line"/>
      <point x="231" y="380" type="line" smooth="yes"/>
      <point x="307" y="380"/>
      <point x="347" y="425"/>
    </contour>
  </outline>
</glyph>
<glyph name="S" format="1">
  <advance width="432"/>
  <unicode hex="0053"/>
  <outline>
    <contour>
      <point x="381" y="159" type="curve" smooth="yes"/>
      <point x="381" y="60"/>
      <point x="317" y="-11"/>
      <point x="212" y="-11" type="curve" smooth="yes"/>
      <point x="124" y="-11"/>
      <point x="70" y="41"/>
      <point x="40" y="128" type="curve"/>
      <point x="104" y="157" type="line"/>
      <point x="131" y="89"/>
      <point x="163" y="54"/>
      <point x="214" y="54" type="curve" smooth="yes"/>
      <point x="274" y="54"/>
      <point x="311" y="93"/>
      <point x="311" y="151" type="curve" smooth="yes"/>
      <point x="311" y="219"/>
      <point x="282" y="274"/>
      <point x="190" y="339" type="curve" smooth="yes"/>
      <point x="91" y="409"/>
      <point x="55" y="460"/>
      <point x="55" y="552" type="curve" smooth="yes"/>
      <point x="55" y="643"/>
      <point x="116" y="711"/>
      <point x="210" y="711" type="curve" smooth="yes"/>
      <point x="296" y="711"/>
      <point x="339" y="666"/>
      <point x="373" y="594" type="curve"/>
      <point x="313" y="560" type="line"/>
      <point x="285" y="615"/>
      <point x="258" y="646"/>
      <point x="207" y="646" type="curve" smooth="yes"/>
      <point x="151" y="646"/>
      <point x="125" y="601"/>
      <point x="125" y="557" type="curve" smooth="yes"/>
      <point x="125" y="501"/>
      <point x="143" y="461"/>
      <point x="234" y="397" type="curve" smooth="yes"/>
      <point x="340" y="324"/>
      <point x="381" y="256"/>
    </contour>
  </outline>
</glyph>
<glyph name="T" format="1">
  <advance width="416"/>
  <unicode hex="0054"/>
  <outline>
    <contour>
      <point x="384" y="636" type="line"/>
      <point x="242" y="636" type="line"/>
      <point x="242" y="0" type="line"/>
      <point x="173" y="0" type="line"/>
      <point x="173" y="636" type="line"/>
      <point x="32" y="636" type="line"/>
      <point x="32" y="700" type="line"/>
      <point x="384" y="700" type="line"/>
    </contour>
  </outline>
</glyph>
<glyph name="U" format="1">
  <advance width="499"/>
  <unicode hex="0055"/>
  <outline>
    <contour>
      <point x="432" y="210" type="line" smooth="yes"/>
      <point x="432" y="70"/>
      <point x="365" y="-11"/>
      <point x="249" y="-11" type="curve" smooth="yes"/>
      <point x="134" y="-11"/>
      <point x="68" y="69"/>
      <point x="68" y="209" type="curve" smooth="yes"/>
      <point x="68" y="700" type="line"/>
      <point x="137" y="700" type="line"/>
      <point x="137" y="211" type="line" smooth="yes"/>
      <point x="137" y="110"/>
      <point x="177" y="54"/>
      <point x="252" y="54" type="curve" smooth="yes"/>
      <point x="326" y="54"/>
      <point x="362" y="109"/>
      <point x="362" y="210" type="curve" smooth="yes"/>
      <point x="362" y="700" type="line"/>
      <point x="432" y="700" type="line"/>
    </contour>
  </outline>
</glyph>
<glyph name="V" format="1">
  <advance width="472"/>
  <unicode hex="0056"/>
  <outline>
    <contour>
      <point x="434" y="700" type="line"/>
      <point x="270" y="0" type="line"/>
      <point x="202" y="0" type="line"/>
      <point x="38" y="700" type="line"/>
      <point x="109" y="700" type="line"/>
      <point x="202" y="274" type="line" smooth="yes"/>
      <point x="216" y="209"/>
      <point x="228" y="142"/>
      <point x="236" y="90" type="curve"/>
      <point x="244" y="142"/>
      <point x="257" y="210"/>
      <point x="271" y="274" type="curve" smooth="yes"/>
      <point x="364" y="700" type="line"/>
    </contour>
  </outline>
</glyph>
<glyph name="W" format="1">
  <advance width="604"/>
  <unicode hex="0057"/>
  <outline>
    <contour>
      <point x="570" y="700" type="line"/>
      <point x="462" y="0" type="line"/>
      <point x="397" y="0" type="line"/>
      <point x="334" y="345" type="line" smooth="yes"/>
      <point x="323" y="405"/>
      <point x="307" y="508"/>
      <point x="301" y="572" type="curve"/>
      <point x="295" y="508"/>
      <point x="279" y="404"/>
      <point x="268" y="345" type="curve" smooth="yes"/>
      <point x="205" y="0" type="line"/>
      <point x="142" y="0" type="line"/>
      <point x="35" y="700" type="line"/>
      <point x="102" y="700" type="line"/>
      <point x="158" y="291" type="line" smooth="yes"/>
      <point x="165" y="243"/>
      <point x="174" y="169"/>
      <point x="177" y="129" type="curve"/>
      <point x="181" y="169"/>
      <point x="194" y="244"/>
      <point x="202" y="291" type="curve" smooth="yes"/>
      <point x="273" y="700" type="line"/>
      <point x="332" y="700" type="line"/>
      <point x="404" y="291" type="line" smooth="yes"/>
      <point x="412" y="244"/>
      <point x="424" y="169"/>
      <point x="428" y="129" type="curve"/>
      <point x="432" y="169"/>
      <point x="440" y="243"/>
      <point x="447" y="291" type="curve" smooth="yes"/>
      <point x="503" y="700" type="line"/>
    </contour>
  </outline>
</glyph>
<glyph name="X" format="1">
  <advance width="442"/>
  <unicode hex="0058"/>
  <outline>
    <contour>
      <point x="407" y="0" type="line"/>
      <point x="331" y="0" type="line"/>
      <point x="266" y="168" type="line" smooth="yes"/>
      <point x="248" y="216"/>
      <point x="231" y="264"/>
      <point x="221" y="300" type="curve"/>
      <point x="211" y="264"/>
      <point x="194" y="216"/>
      <point x="175" y="168" type="curve" smooth="yes"/>
      <point x="109" y="0" type="line"/>
      <point x="35" y="0" type="line"/>
      <point x="184" y="363" type="line"/>
      <point x="47" y="700" type="line"/>
      <point x="123" y="700" type="line"/>
      <point x="176" y="560" type="line" smooth="yes"/>
      <point x="194" y="513"/>
      <point x="212" y="464"/>
      <point x="222" y="428" type="curve"/>
      <point x="232" y="464"/>
      <point x="250" y="513"/>
      <point x="268" y="560" type="curve" smooth="yes"/>
      <point x="322" y="700" type="line"/>
      <point x="395" y="700" type="line"/>
      <point x="258" y="365" type="line"/>
    </contour>
  </outline>
</glyph>
<glyph name="Y" format="1">
  <advance width="455"/>
  <unicode hex="0059"/>
  <outline>
    <contour>
      <point x="426" y="700" type="line"/>
      <point x="262" y="293" type="line"/>
      <point x="262" y="0" type="line"/>
      <point x="193" y="0" type="line"/>
      <point x="193" y="292" type="line"/>
      <point x="28" y="700" type="line"/>
      <point x="104" y="700" type="line"/>
      <point x="172" y="515" type="line" smooth="yes"/>
      <point x="193" y="459"/>
      <point x="216" y="396"/>
      <point x="228" y="356" type="curve"/>
      <point x="240" y="397"/>
      <point x="263" y="460"/>
      <point x="284" y="515" type="curve" smooth="yes"/>
      <point x="353" y="700" type="line"/>
    </contour>
  </outline>
</glyph>
<glyph name="Z" format="1">
  <advance width="428"/>
  <unicode hex="005A"/>
  <outline>
    <contour>
      <point x="379" y="0" type="line"/>
      <point x="43" y="0" type="line"/>
      <point x="43" y="61" type="line"/>
      <point x="287" y="593" type="line" smooth="yes"/>
      <point x="295" y="610"/>
      <point x="302" y="623"/>
      <point x="308" y="636" type="curve"/>
      <point x="278" y="636" type="line"/>
      <point x="60" y="636" type="line"/>
      <point x="60" y="700" type="line"/>
      <point x="379" y="700" type="line"/>
      <point x="379" y="639" type="line"/>
      <point x="136" y="107" type="line" smooth="yes"/>
      <point x="129" y="92"/>
      <point x="122" y="77"/>
      <point x="115" y="64" type="curve"/>
      <point x="145" y="64" type="line"/>
      <point x="379" y="64" type="line"/>
    </contour>
  </outline>
</glyph>
<glyph name="bracketleft" format="1">
  <advance width="286"/>
  <unicode hex="005B"/>
  <outline>
    <contour>
      <point x="239" y="-99" type="line"/>
      <point x="73" y="-99" type="line"/>
      <point x="73" y="700" type="line"/>
      <point x="239" y="700" type="line"/>
      <point x="239" y="640" type="line"/>
      <point x="139" y="640" type="line"/>
      <point x="139" y="-39" type="line"/>
      <point x="239" y="-39" type="line"/>
    </contour>
  </outline>
</glyph>
<glyph name="backslash" format="1">
  <advance width="304"/>
  <unicode hex="005C"/>
  <outline>
    <contour>
      <point x="297" y="-90" type="line"/>
      <point x="233" y="-90" type="line"/>
      <point x="7" y="790" type="line"/>
      <point x="71" y="790" type="line"/>
    </contour>
  </outline>
</glyph>
<glyph name="bracketright" format="1">
  <advance width="286"/>
  <unicode hex="005D"/>
  <outline>
    <contour>
      <point x="212" y="-99" type="line"/>
      <point x="47" y="-99" type="line"/>
      <point x="47" y="-39" type="line"/>
      <point x="147" y="-39" type="line"/>
      <point x="147" y="640" type="line"/>
      <point x="47" y="640" type="line"/>
      <point x="47" y="700" type="line"/>
      <point x="212" y="700" type="line"/>
    </contour>
  </outline>
</glyph>
<glyph name="asciicircum" format="1">
  <advance width="418"/>
  <unicode hex="005E"/>
  <outline>
    <contour>
      <point x="383" y="382" type="line"/>
      <point x="307" y="382" type="line"/>
      <point x="208" y="613" type="line"/>
      <point x="109" y="382" type="line"/>
      <point x="35" y="382" type="line"/>
      <point x="181" y="700" type="line"/>
      <point x="237" y="700" type="line"/>
    </contour>
  </outline>
</glyph>
<glyph name="underscore" format="1">
  <advance width="342"/>
  <unicode hex="005F"/>
  <outline>
    <contour>
      <point x="342" y="-152" type="line"/>
      <point x="0" y="-152" type="line"/>
      <point x="0" y="-92" type="line"/>
      <point x="342" y="-92" type="line"/>
    </contour>
  </outline>
</glyph>
<glyph name="grave" format="1">
  <advance width="395"/>
  <unicode hex="0060"/>
  <outline>
    <contour>
      <point x="267" y="595" type="line"/>
      <point x="216" y="595" type="line"/>
      <point x="86" y="755" type="line"/>
      <point x="181" y="755" type="line"/>
    </contour>
  </outline>
</glyph>
<glyph name="a" format="1">
  <advance width="425"/>
  <unicode hex="0061"/>
  <outline>
    <contour>
      <point x="361" y="0" type="line"/>
      <point x="293" y="0" type="line"/>
      <point x="293" y="44" type="line"/>
      <point x="264" y="14"/>
      <point x="226" y="-11"/>
      <point x="175" y="-11" type="curve" smooth="yes"/>
      <point x="100" y="-11"/>
      <point x="43" y="41"/>
      <point x="43" y="161" type="curve" smooth="yes"/>
      <point x="43" y="279"/>
      <point x="110" y="332"/>
      <point x="199" y="332" type="curve" smooth="yes"/>
      <point x="237" y="332"/>
      <point x="270" y="322"/>
      <point x="293" y="308" type="curve"/>
      <point x="293" y="382" type="line" smooth="yes"/>
      <point x="293" y="445"/>
      <point x="267" y="474"/>
      <point x="212" y="474" type="curve" smooth="yes"/>
      <point x="174" y="474"/>
      <point x="142" y="459"/>
      <point x="105" y="431" type="curve"/>
      <point x="74" y="483" type="line"/>
      <point x="117" y="516"/>
      <point x="163" y="536"/>
      <point x="217" y="536" type="curve" smooth="yes"/>
      <point x="306" y="536"/>
      <point x="361" y="500"/>
      <point x="361" y="389" type="curve" smooth="yes"/>
    </contour>
    <contour>
      <point x="293" y="103" type="curve"/>
      <point x="293" y="249" type="line"/>
      <point x="268" y="263"/>
      <point x="244" y="272"/>
      <point x="198" y="272" type="curve" smooth="yes"/>
      <point x="138" y="272"/>
      <point x="111" y="232"/>
      <point x="111" y="164" type="curve" smooth="yes"/>
      <point x="111" y="94"/>
      <point x="137" y="49"/>
      <point x="187" y="49" type="curve" smooth="yes"/>
      <point x="230" y="49"/>
      <point x="268" y="72"/>
    </contour>
  </outline>
</glyph>
<glyph name="c" format="1">
  <advance width="395"/>
  <unicode hex="0063"/>
  <outline>
    <contour>
      <point x="357" y="82" type="line"/>
      <point x="323" y="24"/>
      <point x="281" y="-11"/>
      <point x="218" y="-11" type="curve" smooth="yes"/>
      <point x="119" y="-11"/>
      <point x="46" y="83"/>
      <point x="46" y="259" type="curve" smooth="yes"/>
      <point x="46" y="446"/>
      <point x="125" y="536"/>
      <point x="221" y="536" type="curve" smooth="yes"/>
      <point x="288" y="536"/>
      <point x="328" y="496"/>
      <point x="357" y="445" type="curve"/>
      <point x="306" y="404" type="line"/>
      <point x="281" y="446"/>
      <point x="259" y="473"/>
      <point x="217" y="473" type="curve" smooth="yes"/>
      <point x="157" y="473"/>
      <point x="115" y="404"/>
      <point x="115" y="263" type="curve" smooth="yes"/>
      <point x="115" y="136"/>
      <point x="150" y="52"/>
      <point x="220" y="52" type="curve" smooth="yes"/>
      <point x="259" y="52"/>
      <point x="284" y="76"/>
      <point x="310" y="120" type="curve"/>
    </contour>
  </outline>
</glyph>
<glyph name="d" format="1">
  <advance width="444"/>
  <unicode hex="0064"/>
  <outline>
    <contour>
      <point x="377" y="0" type="line"/>
      <point x="309" y="0" type="line"/>
      <point x="309" y="45" type="line"/>
      <point x="281" y="15"/>
      <point x="243" y="-11"/>
      <point x="194" y="-11" type="curve" smooth="yes"/>
      <point x="98" y="-11"/>
      <point x="46" y="82"/>
      <point x="46" y="258" type="curve" smooth="yes"/>
      <point x="46" y="438"/>
      <point x="103" y="536"/>
      <point x="201" y="536" type="curve" smooth="yes"/>
      <point x="248" y="536"/>
      <point x="281" y="514"/>
      <point x="309" y="485" type="curve"/>
      <point x="309" y="689" type="line"/>
      <point x="377" y="729" type="line"/>
    </contour>
    <contour>
      <point x="309" y="103" type="curve"/>
      <point x="309" y="420" type="line"/>
      <point x="283" y="452"/>
      <point x="248" y="474"/>
      <point x="206" y="474" type="curve" smooth="yes"/>
      <point x="140" y="474"/>
      <point x="114" y="390"/>
      <point x="114" y="259" type="curve" smooth="yes"/>
      <point x="114" y="118"/>
      <point x="146" y="51"/>
      <point x="210" y="51" type="curve" smooth="yes"/>
      <point x="248" y="51"/>
      <point x="281" y="72"/>
    </contour>
  </outline>
</glyph>
<glyph name="e" format="1">
  <advance width="427"/>
  <unicode hex="0065"/>
  <outline>
    <contour>
      <point x="380" y="266" type="curve" smooth="yes"/>
      <point x="380" y="254"/>
      <point x="380" y="247"/>
      <point x="379" y="239" type="curve"/>
      <point x="113" y="239" type="line"/>
      <point x="118" y="126"/>
      <point x="152" y="52"/>
      <point x="217" y="52" type="curve" smooth="yes"/>
      <point x="259" y="52"/>
      <point x="289" y="69"/>
      <point x="325" y="111" type="curve"/>
      <point x="366" y="67" type="line"/>
      <point x="321" y="16"/>
      <point x="275" y="-11"/>
      <point x="213" y="-11" type="curve" smooth="yes"/>
      <point x="122" y="-11"/>
      <point x="46" y="75"/>
      <point x="46" y="262" type="curve" smooth="yes"/>
      <point x="46" y="436"/>
      <point x="113" y="536"/>
      <point x="216" y="536" type="curve" smooth="yes"/>
      <point x="323" y="536"/>
      <point x="380" y="434"/>
    </contour>
    <contour>
      <point x="314" y="300" type="line"/>
      <point x="310" y="401"/>
      <point x="279" y="473"/>
      <point x="214" y="473" type="curve" smooth="yes"/>
      <point x="159" y="473"/>
      <point x="120" y="419"/>
      <point x="114" y="300" type="curve"/>
    </contour>
  </outline>
</glyph>
<glyph name="f" format="1">
  <advance width="278"/>
  <unicode hex="0066"/>
  <outline>
    <contour>
      <point x="253" y="653" type="line"/>
      <point x="239" y="659"/>
      <point x="222" y="663"/>
      <point x="203" y="663" type="curve" smooth="yes"/>
      <point x="176" y="663"/>
      <point x="157" y="650"/>
      <point x="157" y="611" type="curve" smooth="yes"/>
      <point x="157" y="525" type="line"/>
      <point x="240" y="525" type="line"/>
      <point x="240" y="467" type="line"/>
      <point x="157" y="467" type="line"/>
      <point x="157" y="0" type="line"/>
      <point x="90" y="0" type="line"/>
      <point x="90" y="467" type="line"/>
      <point x="32" y="467" type="line"/>
      <point x="32" y="525" type="line"/>
      <point x="90" y="525" type="line"/>
      <point x="90" y="605" type="line" smooth="yes"/>
      <point x="90" y="691"/>
      <point x="133" y="726"/>
      <point x="196" y="726" type="curve" smooth="yes"/>
      <point x="222" y="726"/>
      <point x="238" y="723"/>
      <point x="253" y="718" type="curve"/>
    </contour>
  </outline>
</glyph>
<glyph name="g" format="1">
  <advance width="444"/>
  <unicode hex="0067"/>
  <outline>
    <contour>
      <point x="377" y="48" type="line" smooth="yes"/>
      <point x="377" y="-101"/>
      <point x="325" y="-170"/>
      <point x="166" y="-193" type="curve"/>
      <point x="145" y="-139" type="line"/>
      <point x="276" y="-121"/>
      <point x="309" y="-76"/>
      <point x="309" y="23" type="curve" smooth="yes"/>
      <point x="309" y="45" type="line"/>
      <point x="281" y="15"/>
      <point x="243" y="-11"/>
      <point x="194" y="-11" type="curve" smooth="yes"/>
      <point x="98" y="-11"/>
      <point x="46" y="82"/>
      <point x="46" y="258" type="curve" smooth="yes"/>
      <point x="46" y="438"/>
      <point x="103" y="536"/>
      <point x="201" y="536" type="curve" smooth="yes"/>
      <point x="248" y="536"/>
      <point x="281" y="514"/>
      <point x="309" y="485" type="curve"/>
      <point x="309" y="525" type="line"/>
      <point x="377" y="525" type="line"/>
    </contour>
    <contour>
      <point x="309" y="103" type="curve"/>
      <point x="309" y="420" type="line"/>
      <point x="283" y="452"/>
      <point x="248" y="474"/>
      <point x="206" y="474" type="curve" smooth="yes"/>
      <point x="140" y="474"/>
      <point x="114" y="390"/>
      <point x="114" y="259" type="curve" smooth="yes"/>
      <point x="114" y="118"/>
      <point x="146" y="51"/>
      <point x="210" y="51" type="curve" smooth="yes"/>
      <point x="248" y="51"/>
      <point x="281" y="72"/>
    </contour>
  </outline>
</glyph>
<glyph name="i" format="1">
  <advance width="212"/>
  <unicode hex="0069"/>
  <outline>
    <contour>
      <point x="154" y="674" type="curve" smooth="yes"/>
      <point x="154" y="647"/>
      <point x="133" y="624"/>
      <point x="108" y="624" type="curve" smooth="yes"/>
      <point x="81" y="624"/>
      <point x="59" y="647"/>
      <point x="59" y="674" type="curve" smooth="yes"/>
      <point x="59" y="701"/>
      <point x="81" y="724"/>
      <point x="108" y="724" type="curve" smooth="yes"/>
      <point x="133" y="724"/>
      <point x="154" y="701"/>
    </contour>
    <contour>
      <point x="140" y="0" type="line"/>
      <point x="72" y="0" type="line"/>
      <point x="72" y="525" type="line"/>
      <point x="140" y="525" type="line"/>
    </contour>
  </outline>
</glyph>
<glyph name="j" format="1">
  <advance width="214"/>
  <unicode hex="006A"/>
  <outline>
    <contour>
      <point x="154" y="674" type="curve" smooth="yes"/>
      <point x="154" y="647"/>
      <point x="133" y="624"/>
      <point x="108" y="624" type="curve" smooth="yes"/>
      <point x="81" y="624"/>
      <point x="59" y="647"/>
      <point x="59" y="674" type="curve" smooth="yes"/>
      <point x="59" y="701"/>
      <point x="81" y="724"/>
      <point x="108" y="724" type="curve" smooth="yes"/>
      <point x="133" y="724"/>
      <point x="154" y="701"/>
    </contour>
    <contour>
      <point x="140" y="10" type="line" smooth="yes"/>
      <point x="140" y="-115"/>
      <point x="111" y="-161"/>
      <point x="2" y="-193" type="curve"/>
      <point x="-19" y="-138" type="line"/>
      <point x="59" y="-112"/>
      <point x="72" y="-87"/>
      <point x="72" y="8" type="curve" smooth="yes"/>
      <point x="72" y="525" type="line"/>
      <point x="140" y="525" type="line"/>
    </contour>
  </outline>
</glyph>
<glyph name="k" format="1">
  <advance width="406"/>
  <unicode hex="006B"/>
  <outline>
    <contour>
      <point x="378" y="0" type="line"/>
      <point x="305" y="0" type="line"/>
      <point x="199" y="269" type="line"/>
      <point x="135" y="167" type="line"/>
      <point x="135" y="0" type="line"/>
      <point x="67" y="0" type="line"/>
      <point x="67" y="689" type="line"/>
      <point x="135" y="729" type="line"/>
      <point x="135" y="315" type="line" smooth="yes"/>
      <point x="135" y="299"/>
      <point x="135" y="275"/>
      <point x="135" y="261" type="curve"/>
      <point x="143" y="280"/>
      <point x="158" y="307"/>
      <point x="167" y="323" type="curve" smooth="yes"/>
      <point x="286" y="525" type="line"/>
      <point x="362" y="525" type="line"/>
      <point x="242" y="334" type="line"/>
    </contour>
  </outline>
</glyph>
<glyph name="l" format="1">
  <advance width="212"/>
  <unicode hex="006C"/>
  <outline>
    <contour>
      <point x="140" y="0" type="line"/>
      <point x="72" y="0" type="line"/>
      <point x="72" y="689" type="line"/>
      <point x="140" y="729" type="line"/>
    </contour>
  </outline>
</glyph>
<glyph name="m" format="1">
  <advance width="665"/>
  <unicode hex="006D"/>
  <outline>
    <contour>
      <point x="601" y="0" type="line"/>
      <point x="533" y="0" type="line"/>
      <point x="533" y="352" type="line" smooth="yes"/>
      <point x="533" y="442"/>
      <point x="506" y="474"/>
      <point x="455" y="474" type="curve" smooth="yes"/>
      <point x="417" y="474"/>
      <point x="391" y="448"/>
      <point x="368" y="413" type="curve"/>
      <point x="368" y="0" type="line"/>
      <point x="300" y="0" type="line"/>
      <point x="300" y="352" type="line" smooth="yes"/>
      <point x="300" y="442"/>
      <point x="273" y="474"/>
      <point x="222" y="474" type="curve" smooth="yes"/>
      <point x="184" y="474"/>
      <point x="158" y="448"/>
      <point x="135" y="413" type="curve"/>
      <point x="135" y="0" type="line"/>
      <point x="67" y="0" type="line"/>
      <point x="67" y="525" type="line"/>
      <point x="135" y="525" type="line"/>
      <point x="135" y="481" type="line"/>
      <point x="159" y="513"/>
      <point x="193" y="536"/>
      <point x="240" y="536" type="curve" smooth="yes"/>
      <point x="294" y="536"/>
      <point x="325" y="509"/>
      <point x="346" y="471" type="curve"/>
      <point x="377" y="509"/>
      <point x="412" y="536"/>
      <point x="472" y="536" type="curve" smooth="yes"/>
      <point x="556" y="536"/>
      <point x="601" y="478"/>
      <point x="601" y="360" type="curve" smooth="yes"/>
    </contour>
  </outline>
</glyph>
<glyph name="n" format="1">
  <advance width="448"/>
  <unicode hex="006E"/>
  <outline>
    <contour>
      <point x="385" y="0" type="line"/>
      <point x="316" y="0" type="line"/>
      <point x="316" y="352" type="line" smooth="yes"/>
      <point x="316" y="438"/>
      <point x="290" y="474"/>
      <point x="231" y="474" type="curve" smooth="yes"/>
      <point x="189" y="474"/>
      <point x="157" y="445"/>
      <point x="135" y="413" type="curve"/>
      <point x="135" y="0" type="line"/>
      <point x="67" y="0" type="line"/>
      <point x="67" y="525" type="line"/>
      <point x="135" y="525" type="line"/>
      <point x="135" y="481" type="line"/>
      <point x="158" y="510"/>
      <point x="195" y="536"/>
      <point x="248" y="536" type="curve" smooth="yes"/>
      <point x="337" y="536"/>
      <point x="385" y="477"/>
      <point x="385" y="360" type="curve" smooth="yes"/>
    </contour>
  </outline>
</glyph>
<glyph name="o" format="1">
  <advance width="449"/>
  <unicode hex="006F"/>
  <outline>
    <contour>
      <point x="404" y="264" type="curve" smooth="yes"/>
      <point x="404" y="85"/>
      <point x="331" y="-11"/>
      <point x="224" y="-11" type="curve" smooth="yes"/>
      <point x="116" y="-11"/>
      <point x="46" y="83"/>
      <point x="46" y="262" type="curve" smooth="yes"/>
      <point x="46" y="441"/>
      <point x="118" y="536"/>
      <point x="226" y="536" type="curve" smooth="yes"/>
      <point x="333" y="536"/>
      <point x="404" y="442"/>
    </contour>
    <contour>
      <point x="335" y="263" type="curve" smooth="yes"/>
      <point x="335" y="405"/>
      <point x="293" y="473"/>
      <point x="224" y="473" type="curve" smooth="yes"/>
      <point x="155" y="473"/>
      <point x="115" y="405"/>
      <point x="115" y="263" type="curve" smooth="yes"/>
      <point x="115" y="121"/>
      <point x="156" y="52"/>
      <point x="225" y="52" type="curve" smooth="yes"/>
      <point x="294" y="52"/>
      <point x="335" y="121"/>
    </contour>
  </outline>
</glyph>
<glyph name="p" format="1">
  <advance width="444"/>
  <unicode hex="0070"/>
  <outline>
    <contour>
      <point x="398" y="267" type="curve" smooth="yes"/>
      <point x="398" y="87"/>
      <point x="340" y="-11"/>
      <point x="242" y="-11" type="curve" smooth="yes"/>
      <point x="196" y="-11"/>
      <point x="162" y="11"/>
      <point x="135" y="40" type="curve"/>
      <point x="135" y="-153" type="line"/>
      <point x="67" y="-193" type="line"/>
      <point x="67" y="525" type="line"/>
      <point x="135" y="525" type="line"/>
      <point x="135" y="480" type="line"/>
      <point x="162" y="510"/>
      <point x="200" y="536"/>
      <point x="249" y="536" type="curve" smooth="yes"/>
      <point x="345" y="536"/>
      <point x="398" y="443"/>
    </contour>
    <contour>
      <point x="330" y="266" type="curve" smooth="yes"/>
      <point x="330" y="407"/>
      <point x="298" y="474"/>
      <point x="234" y="474" type="curve" smooth="yes"/>
      <point x="196" y="474"/>
      <point x="162" y="453"/>
      <point x="135" y="422" type="curve"/>
      <point x="135" y="105" type="line"/>
      <point x="161" y="73"/>
      <point x="195" y="51"/>
      <point x="238" y="51" type="curve" smooth="yes"/>
      <point x="304" y="51"/>
      <point x="330" y="135"/>
    </contour>
  </outline>
</glyph>
<glyph name="r" format="1">
  <advance width="322"/>
  <unicode hex="0072"/>
  <outline>
    <contour>
      <point x="300" y="525" type="curve"/>
      <point x="281" y="454" type="line"/>
      <point x="262" y="465"/>
      <point x="245" y="470"/>
      <point x="218" y="470" type="curve" smooth="yes"/>
      <point x="185" y="470"/>
      <point x="154" y="443"/>
      <point x="135" y="411" type="curve"/>
      <point x="135" y="0" type="line"/>
      <point x="67" y="0" type="line"/>
      <point x="67" y="525" type="line"/>
      <point x="135" y="525" type="line"/>
      <point x="135" y="480" type="line"/>
      <point x="156" y="511"/>
      <point x="193" y="536"/>
      <point x="236" y="536" type="curve" smooth="yes"/>
      <point x="267" y="536"/>
      <point x="285" y="532"/>
    </contour>
  </outline>
</glyph>
<glyph name="s" format="1">
  <advance width="376"/>
  <unicode hex="0073"/>
  <outline>
    <contour>
      <point x="332" y="127" type="curve" smooth="yes"/>
      <point x="332" y="40"/>
      <point x="264" y="-11"/>
      <point x="184" y="-11" type="curve" smooth="yes"/>
      <point x="118" y="-11"/>
      <point x="69" y="26"/>
      <point x="36" y="75" type="curve"/>
      <point x="85" y="119" type="line"/>
      <point x="118" y="76"/>
      <point x="147" y="51"/>
      <point x="186" y="51" type="curve" smooth="yes"/>
      <point x="237" y="51"/>
      <point x="266" y="78"/>
      <point x="266" y="119" type="curve" smooth="yes"/>
      <point x="266" y="166"/>
      <point x="247" y="194"/>
      <point x="168" y="242" type="curve" smooth="yes"/>
      <point x="86" y="292"/>
      <point x="48" y="328"/>
      <point x="48" y="406" type="curve" smooth="yes"/>
      <point x="48" y="481"/>
      <point x="104" y="536"/>
      <point x="184" y="536" type="curve" smooth="yes"/>
      <point x="247" y="536"/>
      <point x="293" y="506"/>
      <point x="322" y="460" type="curve"/>
      <point x="271" y="417" type="line"/>
      <point x="247" y="450"/>
      <point x="221" y="474"/>
      <point x="180" y="474" type="curve" smooth="yes"/>
      <point x="139" y="474"/>
      <point x="114" y="449"/>
      <point x="114" y="411" type="curve" smooth="yes"/>
      <point x="114" y="370"/>
      <point x="133" y="348"/>
      <point x="208" y="301" type="curve" smooth="yes"/>
      <point x="290" y="251"/>
      <point x="332" y="210"/>
    </contour>
  </outline>
</glyph>
<glyph name="t" format="1">
  <advance width="296"/>
  <unicode hex="0074"/>
  <outline>
    <contour>
      <point x="253" y="67" type="curve"/>
      <point x="247" y="4" type="line"/>
      <point x="224" y="-6"/>
      <point x="200" y="-11"/>
      <point x="169" y="-11" type="curve" smooth="yes"/>
      <point x="109" y="-11"/>
      <point x="82" y="26"/>
      <point x="82" y="100" type="curve" smooth="yes"/>
      <point x="82" y="467" type="line"/>
      <point x="28" y="467" type="line"/>
      <point x="28" y="525" type="line"/>
      <point x="82" y="525" type="line"/>
      <point x="82" y="689" type="line"/>
      <point x="149" y="729" type="line"/>
      <point x="149" y="525" type="line"/>
      <point x="250" y="525" type="line"/>
      <point x="250" y="467" type="line"/>
      <point x="149" y="467" type="line"/>
      <point x="149" y="107" type="line" smooth="yes"/>
      <point x="149" y="69"/>
      <point x="162" y="53"/>
      <point x="189" y="53" type="curve" smooth="yes"/>
      <point x="213" y="53"/>
      <point x="230" y="57"/>
    </contour>
  </outline>
</glyph>
<glyph name="u" format="1">
  <advance width="448"/>
  <unicode hex="0075"/>
  <outline>
    <contour>
      <point x="382" y="0" type="line"/>
      <point x="314" y="0" type="line"/>
      <point x="314" y="44" type="line"/>
      <point x="291" y="15"/>
      <point x="254" y="-11"/>
      <point x="201" y="-11" type="curve" smooth="yes"/>
      <point x="112" y="-11"/>
      <point x="64" y="48"/>
      <point x="64" y="165" type="curve" smooth="yes"/>
      <point x="64" y="525" type="line"/>
      <point x="133" y="525" type="line"/>
      <point x="133" y="173" type="line" smooth="yes"/>
      <point x="133" y="87"/>
      <point x="159" y="51"/>
      <point x="218" y="51" type="curve" smooth="yes"/>
      <point x="260" y="51"/>
      <point x="292" y="80"/>
      <point x="314" y="112" type="curve"/>
      <point x="314" y="525" type="line"/>
      <point x="382" y="525" type="line"/>
    </contour>
  </outline>
</glyph>
<glyph name="v" format="1">
  <advance width="411"/>
  <unicode hex="0076"/>
  <outline>
    <contour>
      <point x="381" y="525" type="line"/>
      <point x="236" y="0" type="line"/>
      <point x="175" y="0" type="line"/>
      <point x="31" y="525" type="line"/>
      <point x="102" y="525" type="line"/>
      <point x="188" y="168" type="line" smooth="yes"/>
      <point x="194" y="143"/>
      <point x="203" y="98"/>
      <point x="206" y="76" type="curve"/>
      <point x="209" y="98"/>
      <point x="219" y="143"/>
      <point x="225" y="168" type="curve" smooth="yes"/>
      <point x="311" y="525" type="line"/>
    </contour>
  </outline>
</glyph>
<glyph name="w" format="1">
  <advance width="567"/>
  <unicode hex="0077"/>
  <outline>
    <contour>
      <point x="531" y="525" type="line"/>
      <point x="428" y="0" type="line"/>
      <point x="369" y="0" type="line"/>
      <point x="304" y="319" type="line" smooth="yes"/>
      <point x="296" y="357"/>
      <point x="288" y="400"/>
      <point x="283" y="438" type="curve"/>
      <point x="279" y="400"/>
      <point x="271" y="357"/>
      <point x="263" y="319" type="curve" smooth="yes"/>
      <point x="197" y="0" type="line"/>
      <point x="139" y="0" type="line"/>
      <point x="36" y="525" type="line"/>
      <point x="102" y="525" type="line"/>
      <point x="150" y="230" type="line" smooth="yes"/>
      <point x="156" y="191"/>
      <point x="165" y="131"/>
      <point x="168" y="97" type="curve"/>
      <point x="173" y="131"/>
      <point x="184" y="192"/>
      <point x="192" y="229" type="curve" smooth="yes"/>
      <point x="255" y="525" type="line"/>
      <point x="313" y="525" type="line"/>
      <point x="376" y="229" type="line" smooth="yes"/>
      <point x="384" y="191"/>
      <point x="395" y="131"/>
      <point x="400" y="97" type="curve"/>
      <point x="403" y="131"/>
      <point x="412" y="190"/>
      <point x="418" y="230" type="curve" smooth="yes"/>
      <point x="466" y="525" type="line"/>
    </contour>
  </outline>
</glyph>
<glyph name="x" format="1">
  <advance width="395"/>
  <unicode hex="0078"/>
  <outline>
    <contour>
      <point x="361" y="0" type="line"/>
      <point x="286" y="0" type="line"/>
      <point x="224" y="155" type="line" smooth="yes"/>
      <point x="216" y="176"/>
      <point x="201" y="213"/>
      <point x="196" y="228" type="curve"/>
      <point x="193" y="214"/>
      <point x="178" y="176"/>
      <point x="169" y="155" type="curve" smooth="yes"/>
      <point x="106" y="0" type="line"/>
      <point x="35" y="0" type="line"/>
      <point x="162" y="277" type="line"/>
      <point x="47" y="525" type="line"/>
      <point x="121" y="525" type="line"/>
      <point x="171" y="400" type="line" smooth="yes"/>
      <point x="180" y="378"/>
      <point x="194" y="342"/>
      <point x="198" y="327" type="curve"/>
      <point x="203" y="342"/>
      <point x="217" y="377"/>
      <point x="226" y="400" type="curve" smooth="yes"/>
      <point x="277" y="525" type="line"/>
      <point x="349" y="525" type="line"/>
      <point x="233" y="278" type="line"/>
    </contour>
  </outline>
</glyph>
<glyph name="y" format="1">
  <advance width="416"/>
  <unicode hex="0079"/>
  <outline>
    <contour>
      <point x="385" y="525" type="line"/>
      <point x="188" y="-185" type="line"/>
      <point x="120" y="-185" type="line"/>
      <point x="175" y="-6" type="line"/>
      <point x="31" y="525" type="line"/>
      <point x="103" y="525" type="line"/>
      <point x="185" y="183" type="line" smooth="yes"/>
      <point x="191" y="159"/>
      <point x="206" y="95"/>
      <point x="209" y="74" type="curve"/>
      <point x="213" y="95"/>
      <point x="226" y="158"/>
      <point x="232" y="183" type="curve" smooth="yes"/>
      <point x="313" y="525" type="line"/>
    </contour>
  </outline>
</glyph>
<glyph name="z" format="1">
  <advance width="383"/>
  <unicode hex="007A"/>
  <outline>
    <contour>
      <point x="333" y="0" type="line"/>
      <point x="39" y="0" type="line"/>
      <point x="39" y="52" type="line"/>
      <point x="259" y="466" type="line"/>
      <point x="58" y="466" type="line"/>
      <point x="58" y="525" type="line"/>
      <point x="333" y="525" type="line"/>
      <point x="333" y="473" type="line"/>
      <point x="113" y="59" type="line"/>
      <point x="333" y="59" type="line"/>
    </contour>
  </outline>
</glyph>
<glyph name="braceleft" format="1">
  <advance width="309"/>
  <unicode hex="007B"/>
  <outline>
    <contour>
      <point x="276" y="-110" type="line"/>
      <point x="153" y="-104"/>
      <point x="109" y="-52"/>
      <point x="109" y="82" type="curve" smooth="yes"/>
      <point x="109" y="183" type="line" smooth="yes"/>
      <point x="109" y="250"/>
      <point x="91" y="268"/>
      <point x="52" y="268" type="curve" smooth="yes"/>
      <point x="32" y="268" type="line"/>
      <point x="32" y="330" type="line"/>
      <point x="52" y="330" type="line" smooth="yes"/>
      <point x="91" y="330"/>
      <point x="109" y="347"/>
      <point x="109" y="414" type="curve" smooth="yes"/>
      <point x="109" y="517" type="line" smooth="yes"/>
      <point x="109" y="650"/>
      <point x="153" y="703"/>
      <point x="276" y="709" type="curve"/>
      <point x="276" y="653" type="line"/>
      <point x="196" y="642"/>
      <point x="174" y="614"/>
      <point x="174" y="527" type="curve" smooth="yes"/>
      <point x="174" y="429" type="line" smooth="yes"/>
      <point x="174" y="350"/>
      <point x="161" y="318"/>
      <point x="117" y="299" type="curve"/>
      <point x="161" y="280"/>
      <point x="174" y="247"/>
      <point x="174" y="168" type="curve" smooth="yes"/>
      <point x="174" y="72" type="line" smooth="yes"/>
      <point x="174" y="-15"/>
      <point x="196" y="-43"/>
      <point x="276" y="-54" type="curve"/>
    </contour>
  </outline>
</glyph>
<glyph name="bar" format="1">
  <advance width="234"/>
  <unicode hex="007C"/>
  <outline>
    <contour>
      <point x="150" y="-185" type="line"/>
      <point x="84" y="-185" type="line"/>
      <point x="84" y="800" type="line"/>
      <point x="150" y="800" type="line"/>
    </contour>
  </outline>
</glyph>
<glyph name="braceright" format="1">
  <advance width="309"/>
  <unicode hex="007D"/>
  <outline>
    <contour>
      <point x="277" y="269" type="line"/>
      <point x="256" y="269" type="line" smooth="yes"/>
      <point x="218" y="269"/>
      <point x="200" y="251"/>
      <point x="200" y="185" type="curve" smooth="yes"/>
      <point x="200" y="82" type="line" smooth="yes"/>
      <point x="200" y="-52"/>
      <point x="156" y="-104"/>
      <point x="33" y="-110" type="curve"/>
      <point x="33" y="-54" type="line"/>
      <point x="113" y="-43"/>
      <point x="135" y="-15"/>
      <point x="135" y="72" type="curve" smooth="yes"/>
      <point x="135" y="170" type="line" smooth="yes"/>
      <point x="135" y="249"/>
      <point x="148" y="281"/>
      <point x="192" y="300" type="curve"/>
      <point x="148" y="319"/>
      <point x="135" y="352"/>
      <point x="135" y="430" type="curve" smooth="yes"/>
      <point x="135" y="527" type="line" smooth="yes"/>
      <point x="135" y="614"/>
      <point x="113" y="642"/>
      <point x="33" y="653" type="curve"/>
      <point x="33" y="709" type="line"/>
      <point x="156" y="703"/>
      <point x="200" y="650"/>
      <point x="200" y="517" type="curve" smooth="yes"/>
      <point x="200" y="415" type="line" smooth="yes"/>
      <point x="200" y="349"/>
      <point x="218" y="331"/>
      <point x="256" y="331" type="curve" smooth="yes"/>
      <point x="277" y="331" type="line"/>
    </contour>
  </outline>
</glyph>
<glyph name="asciitilde" format="1">
  <advance width="404"/>
  <unicode hex="007E"/>
  <outline>
    <contour>
      <point x="373" y="426" type="line"/>
      <point x="352" y="348"/>
      <point x="320" y="302"/>
      <point x="268" y="302" type="curve" smooth="yes"/>
      <point x="237" y="302"/>
      <point x="221" y="314"/>
      <point x="189" y="344" type="curve" smooth="yes"/>
      <point x="165" y="367"/>
      <point x="150" y="376"/>
      <point x="136" y="376" type="curve" smooth="yes"/>
      <point x="115" y="376"/>
      <point x="104" y="361"/>
      <point x="85" y="299" type="curve"/>
      <point x="30" y="319" type="line"/>
      <point x="52" y="398"/>
      <point x="83" y="444"/>
      <point x="135" y="444" type="curve" smooth="yes"/>
      <point x="165" y="444"/>
      <point x="182" y="432"/>
      <point x="214" y="401" type="curve" smooth="yes"/>
      <point x="237" y="379"/>
      <point x="252" y="370"/>
      <point x="267" y="370" type="curve" smooth="yes"/>
      <point x="289" y="370"/>
      <point x="299" y="383"/>
      <point x="318" y="446" type="curve"/>
    </contour>
  </outline>
</glyph>
<glyph name="exclamdown" format="1">
  <advance width="217"/>
  <unicode hex="00A1"/>
  <outline>
    <contour>
      <point x="159" y="661" type="curve" smooth="yes"/>
      <point x="159" y="632"/>
      <point x="137" y="609"/>
      <point x="109" y="609" type="curve" smooth="yes"/>
      <point x="80" y="609"/>
      <point x="59" y="632"/>
      <point x="59" y="661" type="curve" smooth="yes"/>
      <point x="59" y="689"/>
      <point x="80" y="711"/>
      <point x="109" y="711" type="curve" smooth="yes"/>
      <point x="137" y="711"/>
      <point x="159" y="689"/>
    </contour>
    <contour>
      <point x="143" y="0" type="line"/>
      <point x="74" y="0" type="line"/>
      <point x="74" y="351" type="line"/>
      <point x="89" y="534" type="line"/>
      <point x="129" y="534" type="line"/>
      <point x="143" y="351" type="line"/>
    </contour>
  </outline>
</glyph>
<glyph name="cent" format="1">
  <advance width="395"/>
  <unicode hex="00A2"/>
  <outline>
    <contour>
      <point x="357" y="175" type="line"/>
      <point x="330" y="129"/>
      <point x="297" y="97"/>
      <point x="252" y="87" type="curve"/>
      <point x="252" y="-11" type="line"/>
      <point x="183" y="-11" type="line"/>
      <point x="183" y="87" type="line"/>
      <point x="102" y="107"/>
      <point x="46" y="198"/>
      <point x="46" y="353" type="curve" smooth="yes"/>
      <point x="46" y="514"/>
      <point x="105" y="603"/>
      <point x="183" y="624" type="curve"/>
      <point x="183" y="720" type="line"/>
      <point x="252" y="720" type="line"/>
      <point x="252" y="626" type="line"/>
      <point x="301" y="616"/>
      <point x="333" y="581"/>
      <point x="357" y="539" type="curve"/>
      <point x="307" y="498" type="line"/>
      <point x="280" y="541"/>
      <point x="260" y="567"/>
      <point x="217" y="567" type="curve" smooth="yes"/>
      <point x="157" y="567"/>
      <point x="115" y="497"/>
      <point x="115" y="356" type="curve" smooth="yes"/>
      <point x="115" y="229"/>
      <point x="150" y="145"/>
      <point x="220" y="145" type="curve" smooth="yes"/>
      <point x="258" y="145"/>
      <point x="281" y="167"/>
      <point x="310" y="213" type="curve"/>
    </contour>
  </outline>
</glyph>
<glyph name="sterling" format="1">
  <advance width="446"/>
  <unicode hex="00A3"/>
  <outline>
    <contour>
      <point x="402" y="0" type="line"/>
      <point x="59" y="0" type="line"/>
      <point x="59" y="64" type="line"/>
      <point x="102" y="133"/>
      <point x="130" y="197"/>
      <point x="130" y="295" type="curve"/>
      <point x="59" y="295" type="line"/>
      <point x="59" y="359" type="line"/>
      <point x="123" y="359" type="line"/>
      <point x="118" y="381"/>
      <point x="110" y="401"/>
      <point x="100" y="424" type="curve" smooth="yes"/>
      <point x="84" y="460"/>
      <point x="73" y="500"/>
      <point x="73" y="548" type="curve" smooth="yes"/>
      <point x="73" y="649"/>
      <point x="138" y="711"/>
      <point x="235" y="711" type="curve" smooth="yes"/>
      <point x="316" y="711"/>
      <point x="363" y="669"/>
      <point x="401" y="583" type="curve"/>
      <point x="344" y="551" type="line"/>
      <point x="315" y="616"/>
      <point x="282" y="646"/>
      <point x="232" y="646" type="curve" smooth="yes"/>
      <point x="169" y="646"/>
      <point x="143" y="602"/>
      <point x="143" y="552" type="curve" smooth="yes"/>
      <point x="143" y="519"/>
      <point x="153" y="479"/>
      <point x="167" y="443" type="curve" smooth="yes"/>
      <point x="177" y="419"/>
      <point x="186" y="391"/>
      <point x="192" y="359" type="curve"/>
      <point x="302" y="359" type="line"/>
      <point x="302" y="295" type="line"/>
      <point x="196" y="295" type="line"/>
      <point x="195" y="193"/>
      <point x="166" y="122"/>
      <point x="134" y="65" type="curve"/>
      <point x="402" y="65" type="line"/>
    </contour>
  </outline>
</glyph>
<glyph name="yen" format="1">
  <advance width="440"/>
  <unicode hex="00A5"/>
  <outline>
    <contour>
      <point x="415" y="700" type="line"/>
      <point x="253" y="290" type="line"/>
      <point x="253" y="198" type="line"/>
      <point x="363" y="198" type="line"/>
      <point x="363" y="135" type="line"/>
      <point x="253" y="135" type="line"/>
      <point x="253" y="0" type="line"/>
      <point x="186" y="0" type="line"/>
      <point x="186" y="135" type="line"/>
      <point x="73" y="135" type="line"/>
      <point x="73" y="198" type="line"/>
      <point x="186" y="198" type="line"/>
      <point x="186" y="289" type="line"/>
      <point x="25" y="700" type="line"/>
      <point x="100" y="700" type="line"/>
      <point x="169" y="515" type="line" smooth="yes"/>
      <point x="190" y="458"/>
      <point x="209" y="400"/>
      <point x="221" y="359" type="curve"/>
      <point x="232" y="400"/>
      <point x="253" y="460"/>
      <point x="273" y="515" type="curve" smooth="yes"/>
      <point x="342" y="700" type="line"/>
    </contour>
  </outline>
</glyph>
<glyph name="section" format="1">
  <advance width="451"/>
  <unicode hex="00A7"/>
  <outline>
    <contour>
      <point x="411" y="268" type="curve" smooth="yes"/>
      <point x="411" y="194"/>
      <point x="371" y="139"/>
      <point x="319" y="99" type="curve"/>
      <point x="348" y="70"/>
      <point x="366" y="34"/>
      <point x="366" y="-18" type="curve" smooth="yes"/>
      <point x="366" y="-111"/>
      <point x="308" y="-164"/>
      <point x="222" y="-164" type="curve" smooth="yes"/>
      <point x="150" y="-164"/>
      <point x="108" y="-130"/>
      <point x="71" y="-51" type="curve"/>
      <point x="128" y="-19" type="line"/>
      <point x="159" y="-81"/>
      <point x="183" y="-99"/>
      <point x="229" y="-99" type="curve" smooth="yes"/>
      <point x="271" y="-99"/>
      <point x="297" y="-70"/>
      <point x="297" y="-24" type="curve" smooth="yes"/>
      <point x="297" y="30"/>
      <point x="275" y="58"/>
      <point x="199" y="89" type="curve" smooth="yes"/>
      <point x="86" y="135"/>
      <point x="40" y="177"/>
      <point x="40" y="279" type="curve" smooth="yes"/>
      <point x="40" y="353"/>
      <point x="79" y="408"/>
      <point x="131" y="448" type="curve"/>
      <point x="102" y="477"/>
      <point x="85" y="513"/>
      <point x="85" y="565" type="curve" smooth="yes"/>
      <point x="85" y="658"/>
      <point x="143" y="711"/>
      <point x="228" y="711" type="curve" smooth="yes"/>
      <point x="301" y="711"/>
      <point x="343" y="677"/>
      <point x="379" y="598" type="curve"/>
      <point x="323" y="566" type="line"/>
      <point x="291" y="628"/>
      <point x="268" y="646"/>
      <point x="222" y="646" type="curve" smooth="yes"/>
      <point x="180" y="646"/>
      <point x="154" y="617"/>
      <point x="154" y="571" type="curve" smooth="yes"/>
      <point x="154" y="517"/>
      <point x="176" y="489"/>
      <point x="251" y="458" type="curve" smooth="yes"/>
      <point x="364" y="412"/>
      <point x="411" y="370"/>
    </contour>
    <contour>
      <point x="342" y="262" type="curve" smooth="yes"/>
      <point x="342" y="326"/>
      <point x="317" y="359"/>
      <point x="236" y="390" type="curve" smooth="yes"/>
      <point x="216" y="397"/>
      <point x="197" y="405"/>
      <point x="180" y="413" type="curve"/>
      <point x="134" y="380"/>
      <point x="109" y="337"/>
      <point x="109" y="285" type="curve" smooth="yes"/>
      <point x="109" y="221"/>
      <point x="133" y="188"/>
      <point x="215" y="157" type="curve" smooth="yes"/>
      <point x="235" y="150"/>
      <point x="253" y="142"/>
      <point x="271" y="133" type="curve"/>
      <point x="317" y="167"/>
      <point x="342" y="210"/>
    </contour>
  </outline>
</glyph>
<glyph name="dieresis" format="1">
  <advance width="395"/>
  <unicode hex="00A8"/>
  <outline>
    <contour>
      <point x="330" y="654" type="curve" smooth="yes"/>
      <point x="330" y="626"/>
      <point x="307" y="603"/>
      <point x="279" y="603" type="curve" smooth="yes"/>
      <point x="252" y="603"/>
      <point x="229" y="626"/>
      <point x="229" y="654" type="curve" smooth="yes"/>
      <point x="229" y="681"/>
      <point x="252" y="705"/>
      <point x="279" y="705" type="curve" smooth="yes"/>
      <point x="307" y="705"/>
      <point x="330" y="681"/>
    </contour>
    <contour>
      <point x="166" y="654" type="curve" smooth="yes"/>
      <point x="166" y="626"/>
      <point x="143" y="603"/>
      <point x="116" y="603" type="curve" smooth="yes"/>
      <point x="88" y="603"/>
      <point x="65" y="626"/>
      <point x="65" y="654" type="curve" smooth="yes"/>
      <point x="65" y="681"/>
      <point x="88" y="705"/>
      <point x="116" y="705" type="curve" smooth="yes"/>
      <point x="143" y="705"/>
      <point x="166" y="681"/>
    </contour>
  </outline>
</glyph>
<glyph name="copyright" format="1">
  <advance width="617"/>
  <unicode hex="00A9"/>
  <outline>
    <contour>
      <point x="573" y="350" type="curve" smooth="yes"/>
      <point x="573" y="135"/>
      <point x="469" y="-11"/>
      <point x="308" y="-11" type="curve" smooth="yes"/>
      <point x="148" y="-11"/>
      <point x="45" y="135"/>
      <point x="45" y="350" type="curve" smooth="yes"/>
      <point x="45" y="565"/>
      <point x="148" y="711"/>
      <point x="308" y="711" type="curve" smooth="yes"/>
      <point x="469" y="711"/>
      <point x="573" y="565"/>
    </contour>
    <contour>
      <point x="525" y="350" type="curve" smooth="yes"/>
      <point x="525" y="537"/>
      <point x="444" y="666"/>
      <point x="308" y="666" type="curve" smooth="yes"/>
      <point x="172" y="666"/>
      <point x="92" y="537"/>
      <point x="92" y="350" type="curve" smooth="yes"/>
      <point x="92" y="163"/>
      <point x="172" y="34"/>
      <point x="308" y="34" type="curve" smooth="yes"/>
      <point x="444" y="34"/>
      <point x="525" y="163"/>
    </contour>
    <contour>
      <point x="410" y="235" type="line"/>
      <point x="390" y="179"/>
      <point x="360" y="146"/>
      <point x="306" y="146" type="curve" smooth="yes"/>
      <point x="231" y="146"/>
      <point x="192" y="223"/>
      <point x="192" y="350" type="curve" smooth="yes"/>
      <point x="192" y="477"/>
      <point x="234" y="555"/>
      <point x="308" y="555" type="curve" smooth="yes"/>
      <point x="359" y="555"/>
      <point x="388" y="524"/>
      <point x="408" y="466" type="curve"/>
      <point x="364" y="446" type="line"/>
      <point x="347" y="495"/>
      <point x="333" y="506"/>
      <point x="307" y="506" type="curve" smooth="yes"/>
      <point x="265" y="506"/>
      <point x="242" y="452"/>
      <point x="242" y="351" type="curve" smooth="yes"/>
      <point x="242" y="247"/>
      <point x="266" y="196"/>
      <point x="308" y="196" type="curve" smooth="yes"/>
      <point x="336" y="196"/>
      <point x="351" y="211"/>
      <point x="369" y="256" type="curve"/>
    </contour>
  </outline>
</glyph>
<glyph name="ordfeminine" format="1">
  <advance width="353"/>
  <unicode hex="00AA"/>
  <outline>
    <contour>
      <point x="293" y="282" type="line"/>
      <point x="233" y="282" type="line"/>
      <point x="233" y="309" type="line"/>
      <point x="210" y="288"/>
      <point x="184" y="273"/>
      <point x="148" y="273" type="curve" smooth="yes"/>
      <point x="88" y="273"/>
      <point x="44" y="317"/>
      <point x="44" y="412" type="curve" smooth="yes"/>
      <point x="44" y="508"/>
      <point x="94" y="551"/>
      <point x="166" y="551" type="curve" smooth="yes"/>
      <point x="193" y="551"/>
      <point x="215" y="545"/>
      <point x="233" y="535" type="curve"/>
      <point x="233" y="590" type="line" smooth="yes"/>
      <point x="233" y="635"/>
      <point x="214" y="656"/>
      <point x="176" y="656" type="curve" smooth="yes"/>
      <point x="149" y="656"/>
      <point x="125" y="644"/>
      <point x="96" y="620" type="curve"/>
      <point x="65" y="667" type="line"/>
      <point x="100" y="694"/>
      <point x="138" y="711"/>
      <point x="179" y="711" type="curve" smooth="yes"/>
      <point x="250" y="711"/>
      <point x="293" y="684"/>
      <point x="293" y="595" type="curve" smooth="yes"/>
    </contour>
    <contour>
      <point x="233" y="364" type="curve"/>
      <point x="233" y="481" type="line"/>
      <point x="214" y="491"/>
      <point x="198" y="497"/>
      <point x="166" y="497" type="curve" smooth="yes"/>
      <point x="122" y="497"/>
      <point x="105" y="466"/>
      <point x="105" y="415" type="curve" smooth="yes"/>
      <point x="105" y="363"/>
      <point x="121" y="327"/>
      <point x="158" y="327" type="curve" smooth="yes"/>
      <point x="187" y="327"/>
      <point x="214" y="343"/>
    </contour>
  </outline>
</glyph>
<glyph name="guillemotleft" format="1">
  <advance width="454"/>
  <unicode hex="00AB"/>
  <outline>
    <contour>
      <point x="421" y="0" type="line"/>
      <point x="348" y="0" type="line"/>
      <point x="188" y="262" type="line"/>
      <point x="348" y="525" type="line"/>
      <point x="421" y="525" type="line"/>
      <point x="262" y="263" type="line"/>
    </contour>
    <contour>
      <point x="252" y="0" type="line"/>
      <point x="179" y="0" type="line"/>
      <point x="19" y="262" type="line"/>
      <point x="179" y="525" type="line"/>
      <point x="252" y="525" type="line"/>
      <point x="93" y="263" type="line"/>
    </contour>
  </outline>
</glyph>
<glyph name="degree" format="1">
  <advance width="392"/>
  <unicode hex="00B0"/>
  <outline>
    <contour>
      <point x="354" y="550" type="curve" smooth="yes"/>
      <point x="354" y="457"/>
      <point x="288" y="387"/>
      <point x="196" y="387" type="curve" smooth="yes"/>
      <point x="105" y="387"/>
      <point x="38" y="457"/>
      <point x="38" y="550" type="curve" smooth="yes"/>
      <point x="38" y="640"/>
      <point x="105" y="711"/>
      <point x="196" y="711" type="curve" smooth="yes"/>
      <point x="288" y="711"/>
      <point x="354" y="640"/>
    </contour>
    <contour>
      <point x="295" y="550" type="curve" smooth="yes"/>
      <point x="295" y="610"/>
      <point x="255" y="655"/>
      <point x="196" y="655" type="curve" smooth="yes"/>
      <point x="137" y="655"/>
      <point x="97" y="610"/>
      <point x="97" y="550" type="curve" smooth="yes"/>
      <point x="97" y="487"/>
      <point x="137" y="442"/>
      <point x="196" y="442" type="curve" smooth="yes"/>
      <point x="255" y="442"/>
      <point x="295" y="487"/>
    </contour>
  </outline>
</glyph>
<glyph name="acute" format="1">
  <advance width="395"/>
  <unicode hex="00B4"/>
  <outline>
    <contour>
      <point x="308" y="755" type="line"/>
      <point x="179" y="595" type="line"/>
      <point x="128" y="595" type="line"/>
      <point x="214" y="755" type="line"/>
    </contour>
  </outline>
</glyph>
<glyph name="paragraph" format="1">
  <advance width="556"/>
  <unicode hex="00B6"/>
  <outline>
    <contour>
      <point x="485" y="-185" type="line"/>
      <point x="419" y="-185" type="line"/>
      <point x="419" y="638" type="line"/>
      <point x="344" y="638" type="line"/>
      <point x="344" y="-185" type="line"/>
      <point x="277" y="-185" type="line"/>
      <point x="277" y="294" type="line"/>
      <point x="236" y="294" type="line" smooth="yes"/>
      <point x="128" y="294"/>
      <point x="37" y="367"/>
      <point x="37" y="497" type="curve" smooth="yes"/>
      <point x="37" y="627"/>
      <point x="129" y="700"/>
      <point x="236" y="700" type="curve" smooth="yes"/>
      <point x="485" y="700" type="line"/>
    </contour>
  </outline>
</glyph>
<glyph name="periodcentered" format="1">
  <advance width="183"/>
  <unicode hex="00B7"/>
  <outline>
    <contour>
      <point x="143" y="367" type="curve" smooth="yes"/>
      <point x="143" y="338"/>
      <point x="122" y="315"/>
      <point x="92" y="315" type="curve" smooth="yes"/>
      <point x="63" y="315"/>
      <point x="41" y="338"/>
      <point x="41" y="367" type="curve" smooth="yes"/>
      <point x="41" y="396"/>
      <point x="63" y="420"/>
      <point x="92" y="420" type="curve" smooth="yes"/>
      <point x="122" y="420"/>
      <point x="143" y="396"/>
    </contour>
  </outline>
</glyph>
<glyph name="cedilla" format="1">
  <advance width="395"/>
  <unicode hex="00B8"/>
  <outline>
    <contour>
      <point x="291" y="-110" type="curve" smooth="yes"/>
      <point x="291" y="-170"/>
      <point x="244" y="-193"/>
      <point x="194" y="-193" type="curve" smooth="yes"/>
      <point x="163" y="-193"/>
      <point x="129" y="-181"/>
      <point x="101" y="-161" type="curve"/>
      <point x="118" y="-132" type="line"/>
      <point x="142" y="-148"/>
      <point x="167" y="-156"/>
      <point x="190" y="-156" type="curve" smooth="yes"/>
      <point x="226" y="-156"/>
      <point x="239" y="-138"/>
      <point x="239" y="-112" type="curve" smooth="yes"/>
      <point x="239" y="-90"/>
      <point x="229" y="-79"/>
      <point x="211" y="-79" type="curve" smooth="yes"/>
      <point x="197" y="-79"/>
      <point x="186" y="-83"/>
      <point x="176" y="-93" type="curve"/>
      <point x="143" y="-79" type="line"/>
      <point x="170" y="0" type="line"/>
      <point x="209" y="0" type="line"/>
      <point x="191" y="-52" type="line"/>
      <point x="201" y="-45"/>
      <point x="213" y="-41"/>
      <point x="232" y="-41" type="curve" smooth="yes"/>
      <point x="262" y="-41"/>
      <point x="291" y="-64"/>
    </contour>
  </outline>
</glyph>
<glyph name="ordmasculine" format="1">
  <advance width="376"/>
  <unicode hex="00BA"/>
  <outline>
    <contour>
      <point x="327" y="493" type="curve" smooth="yes"/>
      <point x="327" y="351"/>
      <point x="272" y="274"/>
      <point x="187" y="274" type="curve" smooth="yes"/>
      <point x="103" y="274"/>
      <point x="48" y="349"/>
      <point x="48" y="492" type="curve" smooth="yes"/>
      <point x="48" y="635"/>
      <point x="104" y="711"/>
      <point x="189" y="711" type="curve" smooth="yes"/>
      <point x="273" y="711"/>
      <point x="327" y="636"/>
    </contour>
    <contour>
      <point x="264" y="493" type="curve" smooth="yes"/>
      <point x="264" y="602"/>
      <point x="237" y="653"/>
      <point x="187" y="653" type="curve" smooth="yes"/>
      <point x="138" y="653"/>
      <point x="111" y="602"/>
      <point x="111" y="493" type="curve" smooth="yes"/>
      <point x="111" y="383"/>
      <point x="139" y="331"/>
      <point x="189" y="331" type="curve" smooth="yes"/>
      <point x="238" y="331"/>
      <point x="264" y="383"/>
    </contour>
  </outline>
</glyph>
<glyph name="guillemotright" format="1">
  <advance width="454"/>
  <unicode hex="00BB"/>
  <outline>
    <contour>
      <point x="435" y="263" type="line"/>
      <point x="275" y="0" type="line"/>
      <point x="202" y="0" type="line"/>
      <point x="362" y="262" type="line"/>
      <point x="202" y="525" type="line"/>
      <point x="275" y="525" type="line"/>
    </contour>
    <contour>
      <point x="266" y="263" type="line"/>
      <point x="106" y="0" type="line"/>
      <point x="33" y="0" type="line"/>
      <point x="193" y="262" type="line"/>
      <point x="33" y="525" type="line"/>
      <point x="106" y="525" type="line"/>
    </contour>
  </outline>
</glyph>
<glyph name="questiondown" format="1">
  <advance width="402"/>
  <unicode hex="00BF"/>
  <outline>
    <contour>
      <point x="273" y="661" type="curve" smooth="yes"/>
      <point x="273" y="632"/>
      <point x="252" y="609"/>
      <point x="224" y="609" type="curve" smooth="yes"/>
      <point x="195" y="609"/>
      <point x="174" y="632"/>
      <point x="174" y="661" type="curve" smooth="yes"/>
      <point x="174" y="689"/>
      <point x="195" y="711"/>
      <point x="224" y="711" type="curve" smooth="yes"/>
      <point x="252" y="711"/>
      <point x="273" y="689"/>
    </contour>
    <contour>
      <point x="370" y="122" type="line"/>
      <point x="339" y="42"/>
      <point x="289" y="-11"/>
      <point x="200" y="-11" type="curve" smooth="yes"/>
      <point x="102" y="-11"/>
      <point x="44" y="56"/>
      <point x="44" y="156" type="curve" smooth="yes"/>
      <point x="44" y="233"/>
      <point x="78" y="286"/>
      <point x="133" y="337" type="curve" smooth="yes"/>
      <point x="180" y="381"/>
      <point x="190" y="422"/>
      <point x="190" y="525" type="curve"/>
      <point x="256" y="525" type="line"/>
      <point x="256" y="398"/>
      <point x="245" y="354"/>
      <point x="172" y="287" type="curve" smooth="yes"/>
      <point x="133" y="251"/>
      <point x="115" y="210"/>
      <point x="115" y="160" type="curve" smooth="yes"/>
      <point x="115" y="98"/>
      <point x="148" y="54"/>
      <point x="205" y="54" type="curve" smooth="yes"/>
      <point x="254" y="54"/>
      <point x="281" y="82"/>
      <point x="310" y="149" type="curve"/>
    </contour>
  </outline>
</glyph>
<glyph name="Aring" format="1">
  <advance width="482"/>
  <unicode hex="00C5"/>
  <outline>
    <contour>
      <point x="444" y="0" type="line"/>
      <point x="373" y="0" type="line"/>
      <point x="332" y="182" type="line"/>
      <point x="149" y="182" type="line"/>
      <point x="107" y="0" type="line"/>
      <point x="38" y="0" type="line"/>
      <point x="194" y="658" type="line"/>
      <point x="160" y="675"/>
      <point x="138" y="710"/>
      <point x="138" y="751" type="curve" smooth="yes"/>
      <point x="138" y="808"/>
      <point x="181" y="852"/>
      <point x="240" y="852" type="curve" smooth="yes"/>
      <point x="300" y="852"/>
      <point x="343" y="808"/>
      <point x="343" y="751" type="curve" smooth="yes"/>
      <point x="343" y="711"/>
      <point x="322" y="676"/>
      <point x="288" y="659" type="curve"/>
    </contour>
    <contour>
      <point x="298" y="751" type="curve" smooth="yes"/>
      <point x="298" y="784"/>
      <point x="275" y="809"/>
      <point x="240" y="809" type="curve" smooth="yes"/>
      <point x="205" y="809"/>
      <point x="183" y="784"/>
      <point x="183" y="751" type="curve" smooth="yes"/>
      <point x="183" y="716"/>
      <point x="205" y="691"/>
      <point x="240" y="691" type="curve" smooth="yes"/>
      <point x="275" y="691"/>
      <point x="298" y="716"/>
    </contour>
    <contour>
      <point x="317" y="247" type="line"/>
      <point x="278" y="422" type="line" smooth="yes"/>
      <point x="263" y="488"/>
      <point x="248" y="561"/>
      <point x="240" y="613" type="curve"/>
      <point x="233" y="561"/>
      <point x="217" y="486"/>
      <point x="202" y="421" type="curve" smooth="yes"/>
      <point x="163" y="247" type="line"/>
    </contour>
  </outline>
</glyph>
<glyph name="AE" format="1">
  <advance width="690"/>
  <unicode hex="00C6"/>
  <outline>
    <contour>
      <point x="651" y="0" type="line"/>
      <point x="341" y="0" type="line"/>
      <point x="341" y="182" type="line"/>
      <point x="167" y="182" type="line"/>
      <point x="91" y="0" type="line"/>
      <point x="18" y="0" type="line"/>
      <point x="322" y="700" type="line"/>
      <point x="639" y="700" type="line"/>
      <point x="639" y="635" type="line"/>
      <point x="408" y="635" type="line"/>
      <point x="408" y="407" type="line"/>
      <point x="554" y="407" type="line"/>
      <point x="554" y="341" type="line"/>
      <point x="408" y="341" type="line"/>
      <point x="408" y="65" type="line"/>
      <point x="651" y="65" type="line"/>
    </contour>
    <contour>
      <point x="343" y="603" type="curve"/>
      <point x="333" y="574"/>
      <point x="312" y="514"/>
      <point x="296" y="477" type="curve" smooth="yes"/>
      <point x="195" y="247" type="line"/>
      <point x="341" y="247" type="line"/>
      <point x="341" y="471" type="line" smooth="yes"/>
      <point x="341" y="514"/>
      <point x="342" y="575"/>
    </contour>
  </outline>
</glyph>
<glyph name="Ccedilla" format="1">
  <advance width="453"/>
  <unicode hex="00C7"/>
  <outline>
    <contour>
      <point x="414" y="137" type="line"/>
      <point x="385" y="52"/>
      <point x="337" y="-6"/>
      <point x="252" y="-11" type="curve"/>
      <point x="238" y="-52" type="line"/>
      <point x="248" y="-45"/>
      <point x="260" y="-41"/>
      <point x="279" y="-41" type="curve" smooth="yes"/>
      <point x="310" y="-41"/>
      <point x="338" y="-64"/>
      <point x="338" y="-110" type="curve" smooth="yes"/>
      <point x="338" y="-170"/>
      <point x="291" y="-193"/>
      <point x="241" y="-193" type="curve" smooth="yes"/>
      <point x="210" y="-193"/>
      <point x="176" y="-181"/>
      <point x="148" y="-161" type="curve"/>
      <point x="165" y="-132" type="line"/>
      <point x="189" y="-148"/>
      <point x="214" y="-156"/>
      <point x="237" y="-156" type="curve" smooth="yes"/>
      <point x="273" y="-156"/>
      <point x="286" y="-138"/>
      <point x="286" y="-112" type="curve" smooth="yes"/>
      <point x="286" y="-90"/>
      <point x="276" y="-79"/>
      <point x="258" y="-79" type="curve" smooth="yes"/>
      <point x="245" y="-79"/>
      <point x="233" y="-83"/>
      <point x="223" y="-93" type="curve"/>
      <point x="190" y="-79" type="line"/>
      <point x="214" y="-8" type="line"/>
      <point x="104" y="10"/>
      <point x="50" y="143"/>
      <point x="50" y="350" type="curve" smooth="yes"/>
      <point x="50" y="572"/>
      <point x="117" y="711"/>
      <point x="244" y="711" type="curve" smooth="yes"/>
      <point x="331" y="711"/>
      <point x="379" y="656"/>
      <point x="412" y="561" type="curve"/>
      <point x="349" y="533" type="line"/>
      <point x="320" y="619"/>
      <point x="292" y="646"/>
      <point x="243" y="646" type="curve" smooth="yes"/>
      <point x="166" y="646"/>
      <point x="120" y="541"/>
      <point x="120" y="350" type="curve" smooth="yes"/>
      <point x="120" y="155"/>
      <point x="168" y="54"/>
      <point x="246" y="54" type="curve" smooth="yes"/>
      <point x="298" y="54"/>
      <point x="328" y="89"/>
      <point x="356" y="166" type="curve"/>
    </contour>
  </outline>
</glyph>
<glyph name="Eth" format="1">
  <advance width="492"/>
  <unicode hex="00D0"/>
  <outline>
    <contour>
      <point x="438" y="355" type="curve" smooth="yes"/>
      <point x="438" y="110"/>
      <point x="350" y="0"/>
      <point x="205" y="0" type="curve" smooth="yes"/>
      <point x="80" y="0" type="line"/>
      <point x="80" y="334" type="line"/>
      <point x="31" y="334" type="line"/>
      <point x="31" y="398" type="line"/>
      <point x="80" y="398" type="line"/>
      <point x="80" y="700" type="line"/>
      <point x="216" y="700" type="line" smooth="yes"/>
      <point x="364" y="700"/>
      <point x="438" y="581"/>
    </contour>
    <contour>
      <point x="368" y="352" type="curve" smooth="yes"/>
      <point x="368" y="543"/>
      <point x="315" y="635"/>
      <point x="213" y="635" type="curve" smooth="yes"/>
      <point x="148" y="635" type="line"/>
      <point x="148" y="398" type="line"/>
      <point x="243" y="398" type="line"/>
      <point x="243" y="334" type="line"/>
      <point x="148" y="334" type="line"/>
      <point x="148" y="65" type="line"/>
      <point x="212" y="65" type="line" smooth="yes"/>
      <point x="308" y="65"/>
      <point x="368" y="144"/>
    </contour>
  </outline>
</glyph>
<glyph name="Oslash" format="1">
  <advance width="500"/>
  <unicode hex="00D8"/>
  <outline>
    <contour>
      <point x="450" y="350" type="curve" smooth="yes"/>
      <point x="450" y="124"/>
      <point x="381" y="-11"/>
      <point x="249" y="-11" type="curve" smooth="yes"/>
      <point x="212" y="-11"/>
      <point x="180" y="-1"/>
      <point x="154" y="19" type="curve"/>
      <point x="128" y="-50" type="line"/>
      <point x="68" y="-50" type="line"/>
      <point x="111" y="65" type="line"/>
      <point x="71" y="127"/>
      <point x="50" y="224"/>
      <point x="50" y="350" type="curve" smooth="yes"/>
      <point x="50" y="576"/>
      <point x="118" y="711"/>
      <point x="250" y="711" type="curve" smooth="yes"/>
      <point x="285" y="711"/>
      <point x="315" y="702"/>
      <point x="341" y="684" type="curve"/>
      <point x="365" y="750" type="line"/>
      <point x="425" y="750" type="line"/>
      <point x="384" y="640" type="line"/>
      <point x="428" y="578"/>
      <point x="450" y="479"/>
    </contour>
    <contour>
      <point x="315" y="615" type="line"/>
      <point x="296" y="636"/>
      <point x="273" y="646"/>
      <point x="248" y="646" type="curve" smooth="yes"/>
      <point x="170" y="646"/>
      <point x="120" y="546"/>
      <point x="120" y="350" type="curve" smooth="yes"/>
      <point x="120" y="269"/>
      <point x="129" y="205"/>
      <point x="145" y="157" type="curve"/>
    </contour>
    <contour>
      <point x="380" y="350" type="curve" smooth="yes"/>
      <point x="380" y="436"/>
      <point x="370" y="503"/>
      <point x="352" y="552" type="curve"/>
      <point x="180" y="90" type="line"/>
      <point x="200" y="66"/>
      <point x="224" y="54"/>
      <point x="251" y="54" type="curve" smooth="yes"/>
      <point x="329" y="54"/>
      <point x="380" y="154"/>
    </contour>
  </outline>
</glyph>
<glyph name="Thorn" format="1">
  <advance width="447"/>
  <unicode hex="00DE"/>
  <outline>
    <contour>
      <point x="413" y="366" type="curve" smooth="yes"/>
      <point x="413" y="227"/>
      <point x="328" y="161"/>
      <point x="223" y="161" type="curve" smooth="yes"/>
      <point x="140" y="161" type="line"/>
      <point x="140" y="0" type="line"/>
      <point x="70" y="0" type="line"/>
      <point x="70" y="700" type="line"/>
      <point x="140" y="700" type="line"/>
      <point x="140" y="560" type="line"/>
      <point x="232" y="560" type="line" smooth="yes"/>
      <point x="335" y="560"/>
      <point x="413" y="500"/>
    </contour>
    <contour>
      <point x="343" y="362" type="curve" smooth="yes"/>
      <point x="343" y="448"/>
      <point x="302" y="494"/>
      <point x="229" y="494" type="curve" smooth="yes"/>
      <point x="140" y="494" type="line"/>
      <point x="140" y="227" type="line"/>
      <point x="226" y="227" type="line" smooth="yes"/>
      <point x="302" y="227"/>
      <point x="343" y="274"/>
    </contour>
  </outline>
</glyph>
<glyph name="germandbls" format="1">
  <advance width="441"/>
  <unicode hex="00DF"/>
  <outline>
    <contour>
      <point x="397" y="226" type="curve" smooth="yes"/>
      <point x="397" y="65"/>
      <point x="327" y="0"/>
      <point x="203" y="0" type="curve" smooth="yes"/>
      <point x="191" y="0" type="line"/>
      <point x="191" y="62" type="line"/>
      <point x="206" y="62" type="line" smooth="yes"/>
      <point x="295" y="62"/>
      <point x="329" y="112"/>
      <point x="329" y="219" type="curve" smooth="yes"/>
      <point x="329" y="325"/>
      <point x="280" y="366"/>
      <point x="208" y="366" type="curve" smooth="yes"/>
      <point x="191" y="366" type="line"/>
      <point x="191" y="429" type="line"/>
      <point x="208" y="429" type="line" smooth="yes"/>
      <point x="262" y="429"/>
      <point x="291" y="463"/>
      <point x="291" y="548" type="curve" smooth="yes"/>
      <point x="291" y="621"/>
      <point x="263" y="663"/>
      <point x="209" y="663" type="curve" smooth="yes"/>
      <point x="158" y="663"/>
      <point x="131" y="623"/>
      <point x="131" y="541" type="curve" smooth="yes"/>
      <point x="131" y="-153" type="line"/>
      <point x="64" y="-193" type="line"/>
      <point x="64" y="535" type="line" smooth="yes"/>
      <point x="64" y="661"/>
      <point x="116" y="726"/>
      <point x="211" y="726" type="curve" smooth="yes"/>
      <point x="307" y="726"/>
      <point x="358" y="656"/>
      <point x="358" y="549" type="curve" smooth="yes"/>
      <point x="358" y="462"/>
      <point x="330" y="423"/>
      <point x="289" y="403" type="curve"/>
      <point x="350" y="386"/>
      <point x="397" y="338"/>
    </contour>
  </outline>
</glyph>
<glyph name="ae" format="1">
  <advance width="660"/>
  <unicode hex="00E6"/>
  <outline>
    <contour>
      <point x="612" y="269" type="curve" smooth="yes"/>
      <point x="612" y="257"/>
      <point x="612" y="250"/>
      <point x="611" y="242" type="curve"/>
      <point x="352" y="242" type="line"/>
      <point x="357" y="126"/>
      <point x="388" y="52"/>
      <point x="453" y="52" type="curve" smooth="yes"/>
      <point x="499" y="52"/>
      <point x="520" y="71"/>
      <point x="558" y="111" type="curve"/>
      <point x="597" y="68" type="line"/>
      <point x="552" y="21"/>
      <point x="517" y="-11"/>
      <point x="449" y="-11" type="curve" smooth="yes"/>
      <point x="402" y="-11"/>
      <point x="357" y="10"/>
      <point x="326" y="60" type="curve"/>
      <point x="284" y="12"/>
      <point x="242" y="-11"/>
      <point x="177" y="-11" type="curve" smooth="yes"/>
      <point x="96" y="-11"/>
      <point x="43" y="40"/>
      <point x="43" y="159" type="curve" smooth="yes"/>
      <point x="43" y="277"/>
      <point x="106" y="329"/>
      <point x="196" y="329" type="curve" smooth="yes"/>
      <point x="234" y="329"/>
      <point x="263" y="319"/>
      <point x="287" y="304" type="curve"/>
      <point x="287" y="382" type="line" smooth="yes"/>
      <point x="287" y="445"/>
      <point x="263" y="474"/>
      <point x="209" y="474" type="curve" smooth="yes"/>
      <point x="171" y="474"/>
      <point x="142" y="459"/>
      <point x="105" y="431" type="curve"/>
      <point x="73" y="485" type="line"/>
      <point x="114" y="516"/>
      <point x="160" y="536"/>
      <point x="213" y="536" type="curve" smooth="yes"/>
      <point x="285" y="536"/>
      <point x="320" y="507"/>
      <point x="333" y="457" type="curve"/>
      <point x="359" y="507"/>
      <point x="398" y="536"/>
      <point x="452" y="536" type="curve" smooth="yes"/>
      <point x="559" y="536"/>
      <point x="612" y="433"/>
    </contour>
    <contour>
      <point x="547" y="302" type="line"/>
      <point x="542" y="401"/>
      <point x="515" y="473"/>
      <point x="450" y="473" type="curve" smooth="yes"/>
      <point x="395" y="473"/>
      <point x="359" y="418"/>
      <point x="353" y="302" type="curve"/>
    </contour>
    <contour>
      <point x="302" y="116" type="curve"/>
      <point x="292" y="153"/>
      <point x="286" y="194"/>
      <point x="285" y="246" type="curve"/>
      <point x="260" y="261"/>
      <point x="237" y="269"/>
      <point x="195" y="269" type="curve" smooth="yes"/>
      <point x="135" y="269"/>
      <point x="111" y="230"/>
      <point x="111" y="163" type="curve" smooth="yes"/>
      <point x="111" y="85"/>
      <point x="136" y="49"/>
      <point x="189" y="49" type="curve" smooth="yes"/>
      <point x="226" y="49"/>
      <point x="267" y="69"/>
    </contour>
  </outline>
</glyph>
<glyph name="ccedilla" format="1">
  <advance width="395"/>
  <unicode hex="00E7"/>
  <outline>
    <contour>
      <point x="357" y="82" type="line"/>
      <point x="324" y="26"/>
      <point x="283" y="-9"/>
      <point x="222" y="-11" type="curve"/>
      <point x="208" y="-52" type="line"/>
      <point x="219" y="-45"/>
      <point x="231" y="-41"/>
      <point x="251" y="-41" type="curve" smooth="yes"/>
      <point x="281" y="-41"/>
      <point x="311" y="-62"/>
      <point x="311" y="-110" type="curve" smooth="yes"/>
      <point x="311" y="-170"/>
      <point x="263" y="-193"/>
      <point x="211" y="-193" type="curve" smooth="yes"/>
      <point x="178" y="-193"/>
      <point x="143" y="-181"/>
      <point x="114" y="-161" type="curve"/>
      <point x="131" y="-131" type="line"/>
      <point x="156" y="-147"/>
      <point x="182" y="-155"/>
      <point x="206" y="-155" type="curve" smooth="yes"/>
      <point x="245" y="-155"/>
      <point x="258" y="-137"/>
      <point x="258" y="-112" type="curve" smooth="yes"/>
      <point x="258" y="-90"/>
      <point x="248" y="-79"/>
      <point x="229" y="-79" type="curve" smooth="yes"/>
      <point x="215" y="-79"/>
      <point x="203" y="-83"/>
      <point x="192" y="-93" type="curve"/>
      <point x="159" y="-79" type="line"/>
      <point x="159" y="-79"/>
      <point x="184" y="-7"/>
      <point x="183" y="-7" type="curve"/>
      <point x="102" y="13"/>
      <point x="46" y="105"/>
      <point x="46" y="259" type="curve" smooth="yes"/>
      <point x="46" y="446"/>
      <point x="125" y="536"/>
      <point x="221" y="536" type="curve" smooth="yes"/>
      <point x="288" y="536"/>
      <point x="328" y="496"/>
      <point x="357" y="445" type="curve"/>
      <point x="306" y="404" type="line"/>
      <point x="281" y="446"/>
      <point x="259" y="473"/>
      <point x="217" y="473" type="curve" smooth="yes"/>
      <point x="157" y="473"/>
      <point x="115" y="404"/>
      <point x="115" y="263" type="curve" smooth="yes"/>
      <point x="115" y="136"/>
      <point x="150" y="52"/>
      <point x="220" y="52" type="curve" smooth="yes"/>
      <point x="258" y="52"/>
      <point x="281" y="74"/>
      <point x="309" y="120" type="curve"/>
    </contour>
  </outline>
</glyph>
<glyph name="eth" format="1">
  <advance width="449"/>
  <unicode hex="00F0"/>
  <outline>
    <contour>
      <point x="404" y="298" type="curve" smooth="yes"/>
      <point x="404" y="77"/>
      <point x="338" y="-11"/>
      <point x="224" y="-11" type="curve" smooth="yes"/>
      <point x="120" y="-11"/>
      <point x="46" y="83"/>
      <point x="46" y="236" type="curve" smooth="yes"/>
      <point x="46" y="388"/>
      <point x="119" y="483"/>
      <point x="214" y="483" type="curve" smooth="yes"/>
      <point x="279" y="483"/>
      <point x="316" y="454"/>
      <point x="343" y="405" type="curve"/>
      <point x="329" y="480"/>
      <point x="303" y="542"/>
      <point x="260" y="585" type="curve"/>
      <point x="210" y="530" type="line"/>
      <point x="165" y="569" type="line"/>
      <point x="212" y="622" type="line"/>
      <point x="190" y="634"/>
      <point x="166" y="643"/>
      <point x="139" y="648" type="curve"/>
      <point x="139" y="711" type="line"/>
      <point x="181" y="705"/>
      <point x="219" y="691"/>
      <point x="254" y="669" type="curve"/>
      <point x="292" y="711" type="line"/>
      <point x="337" y="672" type="line"/>
      <point x="300" y="630" type="line"/>
      <point x="365" y="564"/>
      <point x="404" y="455"/>
    </contour>
    <contour>
      <point x="335" y="236" type="curve" smooth="yes"/>
      <point x="335" y="358"/>
      <point x="291" y="420"/>
      <point x="221" y="420" type="curve" smooth="yes"/>
      <point x="153" y="420"/>
      <point x="115" y="353"/>
      <point x="115" y="236" type="curve" smooth="yes"/>
      <point x="115" y="116"/>
      <point x="159" y="52"/>
      <point x="225" y="52" type="curve" smooth="yes"/>
      <point x="292" y="52"/>
      <point x="335" y="116"/>
    </contour>
  </outline>
</glyph>
<glyph name="oslash" format="1">
  <advance width="449"/>
  <unicode hex="00F8"/>
  <outline>
    <contour>
      <point x="404" y="264" type="curve" smooth="yes"/>
      <point x="404" y="85"/>
      <point x="331" y="-11"/>
      <point x="224" y="-11" type="curve" smooth="yes"/>
      <point x="197" y="-11"/>
      <point x="173" y="-5"/>
      <point x="151" y="6" type="curve"/>
      <point x="128" y="-50" type="line"/>
      <point x="68" y="-50" type="line"/>
      <point x="106" y="43" type="line"/>
      <point x="68" y="88"/>
      <point x="46" y="161"/>
      <point x="46" y="262" type="curve" smooth="yes"/>
      <point x="46" y="441"/>
      <point x="118" y="536"/>
      <point x="226" y="536" type="curve" smooth="yes"/>
      <point x="253" y="536"/>
      <point x="278" y="530"/>
      <point x="300" y="518" type="curve"/>
      <point x="323" y="575" type="line"/>
      <point x="383" y="575" type="line"/>
      <point x="344" y="481" type="line"/>
      <point x="382" y="436"/>
      <point x="404" y="363"/>
    </contour>
    <contour>
      <point x="275" y="457" type="line"/>
      <point x="260" y="468"/>
      <point x="243" y="473"/>
      <point x="224" y="473" type="curve" smooth="yes"/>
      <point x="155" y="473"/>
      <point x="115" y="405"/>
      <point x="115" y="263" type="curve" smooth="yes"/>
      <point x="115" y="202"/>
      <point x="123" y="154"/>
      <point x="137" y="119" type="curve"/>
    </contour>
    <contour>
      <point x="335" y="263" type="curve" smooth="yes"/>
      <point x="335" y="323"/>
      <point x="327" y="370"/>
      <point x="313" y="404" type="curve"/>
      <point x="176" y="67" type="line"/>
      <point x="190" y="57"/>
      <point x="207" y="52"/>
      <point x="225" y="52" type="curve" smooth="yes"/>
      <point x="294" y="52"/>
      <point x="335" y="121"/>
    </contour>
  </outline>
</glyph>
<glyph name="dotlessi" format="1">
  <advance width="212"/>
  <unicode hex="0131"/>
  <outline>
    <contour>
      <point x="140" y="0" type="line"/>
      <point x="72" y="0" type="line"/>
      <point x="72" y="525" type="line"/>
      <point x="140" y="525" type="line"/>
    </contour>
  </outline>
</glyph>
<glyph name="Lslash" format="1">
  <advance width="410"/>
  <unicode hex="0141"/>
  <outline>
    <contour>
      <point x="373" y="0" type="line"/>
      <point x="80" y="0" type="line"/>
      <point x="80" y="253" type="line"/>
      <point x="34" y="211" type="line"/>
      <point x="34" y="296" type="line"/>
      <point x="80" y="337" type="line"/>
      <point x="80" y="700" type="line"/>
      <point x="148" y="700" type="line"/>
      <point x="148" y="391" type="line"/>
      <point x="252" y="480" type="line"/>
      <point x="252" y="396" type="line"/>
      <point x="148" y="307" type="line"/>
      <point x="148" y="65" type="line"/>
      <point x="373" y="65" type="line"/>
    </contour>
  </outline>
</glyph>
<glyph name="lslash" format="1">
  <advance width="237"/>
  <unicode hex="0142"/>
  <outline>
    <contour>
      <point x="201" y="367" type="line"/>
      <point x="152" y="322" type="line"/>
      <point x="152" y="0" type="line"/>
      <point x="85" y="0" type="line"/>
      <point x="85" y="266" type="line"/>
      <point x="36" y="221" type="line"/>
      <point x="36" y="308" type="line"/>
      <point x="85" y="353" type="line"/>
      <point x="85" y="689" type="line"/>
      <point x="152" y="729" type="line"/>
      <point x="152" y="408" type="line"/>
      <point x="201" y="454" type="line"/>
    </contour>
  </outline>
</glyph>
<glyph name="OE" format="1">
  <advance width="724"/>
  <unicode hex="0152"/>
  <outline>
    <contour>
      <point x="683" y="0" type="line"/>
      <point x="383" y="0" type="line"/>
      <point x="383" y="83" type="line"/>
      <point x="357" y="28"/>
      <point x="318" y="-11"/>
      <point x="249" y="-11" type="curve" smooth="yes"/>
      <point x="117" y="-11"/>
      <point x="50" y="124"/>
      <point x="50" y="350" type="curve" smooth="yes"/>
      <point x="50" y="576"/>
      <point x="117" y="711"/>
      <point x="249" y="711" type="curve" smooth="yes"/>
      <point x="315" y="711"/>
      <point x="358" y="671"/>
      <point x="383" y="619" type="curve"/>
      <point x="383" y="700" type="line"/>
      <point x="672" y="700" type="line"/>
      <point x="672" y="635" type="line"/>
      <point x="443" y="635" type="line"/>
      <point x="443" y="407" type="line"/>
      <point x="587" y="407" type="line"/>
      <point x="587" y="341" type="line"/>
      <point x="443" y="341" type="line"/>
      <point x="443" y="65" type="line"/>
      <point x="683" y="65" type="line"/>
    </contour>
    <contour>
      <point x="377" y="350" type="curve" smooth="yes"/>
      <point x="377" y="545"/>
      <point x="326" y="646"/>
      <point x="247" y="646" type="curve" smooth="yes"/>
      <point x="169" y="646"/>
      <point x="120" y="546"/>
      <point x="120" y="350" type="curve" smooth="yes"/>
      <point x="120" y="155"/>
      <point x="171" y="54"/>
      <point x="250" y="54" type="curve" smooth="yes"/>
      <point x="328" y="54"/>
      <point x="377" y="154"/>
    </contour>
  </outline>
</glyph>
<glyph name="oe" format="1">
  <advance width="704"/>
  <unicode hex="0153"/>
  <outline>
    <contour>
      <point x="657" y="266" type="curve" smooth="yes"/>
      <point x="657" y="254"/>
      <point x="656" y="247"/>
      <point x="655" y="239" type="curve"/>
      <point x="395" y="239" type="line"/>
      <point x="399" y="126"/>
      <point x="433" y="52"/>
      <point x="496" y="52" type="curve" smooth="yes"/>
      <point x="541" y="52"/>
      <point x="565" y="71"/>
      <point x="602" y="111" type="curve"/>
      <point x="641" y="68" type="line"/>
      <point x="597" y="21"/>
      <point x="559" y="-11"/>
      <point x="492" y="-11" type="curve" smooth="yes"/>
      <point x="430" y="-11"/>
      <point x="382" y="33"/>
      <point x="359" y="95" type="curve"/>
      <point x="336" y="32"/>
      <point x="293" y="-11"/>
      <point x="221" y="-11" type="curve" smooth="yes"/>
      <point x="117" y="-11"/>
      <point x="46" y="83"/>
      <point x="46" y="262" type="curve" smooth="yes"/>
      <point x="46" y="441"/>
      <point x="119" y="536"/>
      <point x="223" y="536" type="curve" smooth="yes"/>
      <point x="294" y="536"/>
      <point x="340" y="492"/>
      <point x="362" y="431" type="curve"/>
      <point x="386" y="493"/>
      <point x="429" y="536"/>
      <point x="495" y="536" type="curve" smooth="yes"/>
      <point x="599" y="536"/>
      <point x="657" y="434"/>
    </contour>
    <contour>
      <point x="591" y="299" type="line"/>
      <point x="587" y="401"/>
      <point x="556" y="473"/>
      <point x="493" y="473" type="curve" smooth="yes"/>
      <point x="440" y="473"/>
      <point x="402" y="419"/>
      <point x="395" y="299" type="curve"/>
    </contour>
    <contour>
      <point x="330" y="263" type="curve" smooth="yes"/>
      <point x="330" y="405"/>
      <point x="288" y="473"/>
      <point x="222" y="473" type="curve" smooth="yes"/>
      <point x="155" y="473"/>
      <point x="115" y="405"/>
      <point x="115" y="263" type="curve" smooth="yes"/>
      <point x="115" y="121"/>
      <point x="156" y="52"/>
      <point x="223" y="52" type="curve" smooth="yes"/>
      <point x="289" y="52"/>
      <point x="330" y="121"/>
    </contour>
  </outline>
</glyph>
<glyph name="florin" format="1">
  <advance width="304"/>
  <unicode hex="0192"/>
  <outline>
    <contour>
      <point x="265" y="641" type="line"/>
      <point x="251" y="646"/>
      <point x="227" y="650"/>
      <point x="209" y="650" type="curve" smooth="yes"/>
      <point x="178" y="650"/>
      <point x="160" y="635"/>
      <point x="160" y="596" type="curve" smooth="yes"/>
      <point x="160" y="525" type="line"/>
      <point x="247" y="525" type="line"/>
      <point x="247" y="466" type="line"/>
      <point x="160" y="466" type="line"/>
      <point x="160" y="-154" type="line"/>
      <point x="94" y="-192" type="line"/>
      <point x="94" y="466" type="line"/>
      <point x="40" y="466" type="line"/>
      <point x="40" y="525" type="line"/>
      <point x="94" y="525" type="line"/>
      <point x="94" y="593" type="line" smooth="yes"/>
      <point x="94" y="675"/>
      <point x="137" y="711"/>
      <point x="202" y="711" type="curve" smooth="yes"/>
      <point x="227" y="711"/>
      <point x="250" y="708"/>
      <point x="265" y="703" type="curve"/>
    </contour>
  </outline>
</glyph>
<glyph name="circumflex" format="1">
  <advance width="395"/>
  <unicode hex="02C6"/>
  <outline>
    <contour>
      <point x="331" y="595" type="line"/>
      <point x="273" y="595" type="line"/>
      <point x="196" y="695" type="line"/>
      <point x="120" y="595" type="line"/>
      <point x="63" y="595" type="line"/>
      <point x="165" y="755" type="line"/>
      <point x="230" y="755" type="line"/>
    </contour>
  </outline>
</glyph>
<glyph name="caron" format="1">
  <advance width="395"/>
  <unicode hex="02C7"/>
  <outline>
    <contour>
      <point x="331" y="755" type="line"/>
      <point x="230" y="595" type="line"/>
      <point x="165" y="595" type="line"/>
      <point x="63" y="755" type="line"/>
      <point x="122" y="755" type="line"/>
      <point x="198" y="655" type="line"/>
      <point x="275" y="755" type="line"/>
    </contour>
  </outline>
</glyph>
<glyph name="breve" format="1">
  <advance width="395"/>
  <unicode hex="02D8"/>
  <outline>
    <contour>
      <point x="335" y="740" type="line"/>
      <point x="331" y="649"/>
      <point x="281" y="595"/>
      <point x="196" y="595" type="curve" smooth="yes"/>
      <point x="117" y="595"/>
      <point x="64" y="649"/>
      <point x="60" y="740" type="curve"/>
      <point x="115" y="740" type="line"/>
      <point x="119" y="677"/>
      <point x="146" y="646"/>
      <point x="198" y="646" type="curve" smooth="yes"/>
      <point x="245" y="646"/>
      <point x="276" y="675"/>
      <point x="281" y="740" type="curve"/>
    </contour>
  </outline>
</glyph>
<glyph name="dotaccent" format="1">
  <advance width="395"/>
  <unicode hex="02D9"/>
  <outline>
    <contour>
      <point x="248" y="654" type="curve" smooth="yes"/>
      <point x="248" y="626"/>
      <point x="225" y="603"/>
      <point x="197" y="603" type="curve" smooth="yes"/>
      <point x="170" y="603"/>
      <point x="147" y="626"/>
      <point x="147" y="654" type="curve" smooth="yes"/>
      <point x="147" y="681"/>
      <point x="170" y="705"/>
      <point x="197" y="705" type="curve" smooth="yes"/>
      <point x="225" y="705"/>
      <point x="248" y="681"/>
    </contour>
  </outline>
</glyph>
<glyph name="ring" format="1">
  <advance width="395"/>
  <unicode hex="02DA"/>
  <outline>
    <contour>
      <point x="300" y="702" type="curve" smooth="yes"/>
      <point x="300" y="645"/>
      <point x="257" y="599"/>
      <point x="197" y="599" type="curve" smooth="yes"/>
      <point x="138" y="599"/>
      <point x="95" y="645"/>
      <point x="95" y="702" type="curve" smooth="yes"/>
      <point x="95" y="759"/>
      <point x="138" y="803"/>
      <point x="197" y="803" type="curve" smooth="yes"/>
      <point x="257" y="803"/>
      <point x="300" y="759"/>
    </contour>
    <contour>
      <point x="255" y="702" type="curve" smooth="yes"/>
      <point x="255" y="735"/>
      <point x="232" y="760"/>
      <point x="197" y="760" type="curve" smooth="yes"/>
      <point x="162" y="760"/>
      <point x="140" y="735"/>
      <point x="140" y="702" type="curve" smooth="yes"/>
      <point x="140" y="667"/>
      <point x="162" y="642"/>
      <point x="197" y="642" type="curve" smooth="yes"/>
      <point x="232" y="642"/>
      <point x="255" y="667"/>
    </contour>
  </outline>
</glyph>
<glyph name="ogonek" format="1">
  <advance width="395"/>
  <unicode hex="02DB"/>
  <outline>
    <contour>
      <point x="298" y="-154" type="line"/>
      <point x="266" y="-177"/>
      <point x="230" y="-193"/>
      <point x="196" y="-193" type="curve" smooth="yes"/>
      <point x="147" y="-193"/>
      <point x="119" y="-162"/>
      <point x="119" y="-116" type="curve" smooth="yes"/>
      <point x="119" y="-74"/>
      <point x="148" y="-34"/>
      <point x="188" y="0" type="curve"/>
      <point x="229" y="0" type="line"/>
      <point x="192" y="-41"/>
      <point x="175" y="-70"/>
      <point x="175" y="-104" type="curve" smooth="yes"/>
      <point x="175" y="-132"/>
      <point x="189" y="-148"/>
      <point x="212" y="-148" type="curve" smooth="yes"/>
      <point x="235" y="-148"/>
      <point x="255" y="-141"/>
      <point x="281" y="-126" type="curve"/>
    </contour>
  </outline>
</glyph>
<glyph name="tilde" format="1">
  <advance width="395"/>
  <unicode hex="02DC"/>
  <outline>
    <contour>
      <point x="342" y="716" type="line"/>
      <point x="342" y="636"/>
      <point x="304" y="599"/>
      <point x="260" y="599" type="curve" smooth="yes"/>
      <point x="239" y="599"/>
      <point x="221" y="605"/>
      <point x="200" y="622" type="curve" smooth="yes"/>
      <point x="160" y="655"/>
      <point x="153" y="662"/>
      <point x="136" y="662" type="curve" smooth="yes"/>
      <point x="121" y="662"/>
      <point x="109" y="649"/>
      <point x="104" y="601" type="curve"/>
      <point x="52" y="601" type="line"/>
      <point x="52" y="682"/>
      <point x="90" y="719"/>
      <point x="134" y="719" type="curve" smooth="yes"/>
      <point x="155" y="719"/>
      <point x="175" y="714"/>
      <point x="195" y="696" type="curve" smooth="yes"/>
      <point x="234" y="663"/>
      <point x="244" y="655"/>
      <point x="259" y="655" type="curve" smooth="yes"/>
      <point x="276" y="655"/>
      <point x="286" y="674"/>
      <point x="290" y="716" type="curve"/>
    </contour>
  </outline>
</glyph>
<glyph name="hungarumlaut" format="1">
  <advance width="395"/>
  <unicode hex="02DD"/>
  <outline>
    <contour>
      <point x="363" y="755" type="line"/>
      <point x="239" y="595" type="line"/>
      <point x="192" y="595" type="line"/>
      <point x="275" y="755" type="line"/>
    </contour>
    <contour>
      <point x="222" y="755" type="line"/>
      <point x="98" y="595" type="line"/>
      <point x="50" y="595" type="line"/>
      <point x="133" y="755" type="line"/>
    </contour>
  </outline>
</glyph>
<glyph name="endash" format="1">
  <advance width="336"/>
  <unicode hex="2013"/>
  <outline>
    <contour>
      <point x="296" y="333" type="line"/>
      <point x="40" y="333" type="line"/>
      <point x="40" y="398" type="line"/>
      <point x="296" y="398" type="line"/>
    </contour>
  </outline>
</glyph>
<glyph name="quoteleft" format="1">
  <advance width="195"/>
  <unicode hex="2018"/>
  <unicode hex="02BB"/>
  <outline>
    <contour>
      <point x="140" y="700" type="line"/>
      <point x="129" y="512" type="line"/>
      <point x="46" y="512" type="line"/>
      <point x="98" y="700" type="line"/>
    </contour>
  </outline>
</glyph>
<glyph name="quoteright" format="1">
  <advance width="195"/>
  <unicode hex="2019"/>
  <unicode hex="02BC"/>
  <outline>
    <contour>
      <point x="149" y="700" type="line"/>
      <point x="97" y="512" type="line"/>
      <point x="55" y="512" type="line"/>
      <point x="66" y="700" type="line"/>
    </contour>
  </outline>
</glyph>
<glyph name="quotesinglbase" format="1">
  <advance width="195"/>
  <unicode hex="201A"/>
  <outline>
    <contour>
      <point x="148" y="88" type="line"/>
      <point x="96" y="-99" type="line"/>
      <point x="53" y="-99" type="line"/>
      <point x="65" y="88" type="line"/>
    </contour>
  </outline>
</glyph>
<glyph name="quotedblleft" format="1">
  <advance width="358"/>
  <unicode hex="201C"/>
  <outline>
    <contour>
      <point x="303" y="700" type="line"/>
      <point x="292" y="512" type="line"/>
      <point x="209" y="512" type="line"/>
      <point x="261" y="700" type="line"/>
    </contour>
    <contour>
      <point x="140" y="700" type="line"/>
      <point x="129" y="512" type="line"/>
      <point x="46" y="512" type="line"/>
      <point x="98" y="700" type="line"/>
    </contour>
  </outline>
</glyph>
<glyph name="quotedblright" format="1">
  <advance width="358"/>
  <unicode hex="201D"/>
  <outline>
    <contour>
      <point x="312" y="700" type="line"/>
      <point x="260" y="512" type="line"/>
      <point x="218" y="512" type="line"/>
      <point x="230" y="700" type="line"/>
    </contour>
    <contour>
      <point x="149" y="700" type="line"/>
      <point x="97" y="512" type="line"/>
      <point x="55" y="512" type="line"/>
      <point x="66" y="700" type="line"/>
    </contour>
  </outline>
</glyph>
<glyph name="quotedblbase" format="1">
  <advance width="358"/>
  <unicode hex="201E"/>
  <outline>
    <contour>
      <point x="311" y="88" type="line"/>
      <point x="259" y="-99" type="line"/>
      <point x="216" y="-99" type="line"/>
      <point x="228" y="88" type="line"/>
    </contour>
    <contour>
      <point x="148" y="88" type="line"/>
      <point x="96" y="-99" type="line"/>
      <point x="53" y="-99" type="line"/>
      <point x="65" y="88" type="line"/>
    </contour>
  </outline>
</glyph>
<glyph name="dagger" format="1">
  <advance width="430"/>
  <unicode hex="2020"/>
  <outline>
    <contour>
      <point x="397" y="402" type="line"/>
      <point x="246" y="402" type="line"/>
      <point x="246" y="-100" type="line"/>
      <point x="184" y="-100" type="line"/>
      <point x="184" y="402" type="line"/>
      <point x="33" y="402" type="line"/>
      <point x="33" y="461" type="line"/>
      <point x="184" y="461" type="line"/>
      <point x="184" y="700" type="line"/>
      <point x="246" y="700" type="line"/>
      <point x="246" y="461" type="line"/>
      <point x="397" y="461" type="line"/>
    </contour>
  </outline>
</glyph>
<glyph name="daggerdbl" format="1">
  <advance width="430"/>
  <unicode hex="2021"/>
  <outline>
    <contour>
      <point x="397" y="139" type="line"/>
      <point x="246" y="139" type="line"/>
      <point x="246" y="-100" type="line"/>
      <point x="184" y="-100" type="line"/>
      <point x="184" y="139" type="line"/>
      <point x="33" y="139" type="line"/>
      <point x="33" y="198" type="line"/>
      <point x="184" y="198" type="line"/>
      <point x="184" y="402" type="line"/>
      <point x="33" y="402" type="line"/>
      <point x="33" y="461" type="line"/>
      <point x="184" y="461" type="line"/>
      <point x="184" y="700" type="line"/>
      <point x="246" y="700" type="line"/>
      <point x="246" y="461" type="line"/>
      <point x="397" y="461" type="line"/>
      <point x="397" y="402" type="line"/>
      <point x="246" y="402" type="line"/>
      <point x="246" y="198" type="line"/>
      <point x="397" y="198" type="line"/>
    </contour>
  </outline>
</glyph>
<glyph name="ellipsis" format="1">
  <advance width="549"/>
  <unicode hex="2026"/>
  <outline>
    <contour>
      <point x="509" y="41" type="curve" smooth="yes"/>
      <point x="509" y="12"/>
      <point x="488" y="-11"/>
      <point x="458" y="-11" type="curve" smooth="yes"/>
      <point x="429" y="-11"/>
      <point x="407" y="12"/>
      <point x="407" y="41" type="curve" smooth="yes"/>
      <point x="407" y="70"/>
      <point x="429" y="94"/>
      <point x="458" y="94" type="curve" smooth="yes"/>
      <point x="488" y="94"/>
      <point x="509" y="70"/>
    </contour>
    <contour>
      <point x="326" y="41" type="curve" smooth="yes"/>
      <point x="326" y="12"/>
      <point x="305" y="-11"/>
      <point x="275" y="-11" type="curve" smooth="yes"/>
      <point x="246" y="-11"/>
      <point x="224" y="12"/>
      <point x="224" y="41" type="curve" smooth="yes"/>
      <point x="224" y="70"/>
      <point x="246" y="94"/>
      <point x="275" y="94" type="curve" smooth="yes"/>
      <point x="305" y="94"/>
      <point x="326" y="70"/>
    </contour>
    <contour>
      <point x="143" y="41" type="curve" smooth="yes"/>
      <point x="143" y="12"/>
      <point x="122" y="-11"/>
      <point x="92" y="-11" type="curve" smooth="yes"/>
      <point x="63" y="-11"/>
      <point x="41" y="12"/>
      <point x="41" y="41" type="curve" smooth="yes"/>
      <point x="41" y="70"/>
      <point x="63" y="94"/>
      <point x="92" y="94" type="curve" smooth="yes"/>
      <point x="122" y="94"/>
      <point x="143" y="70"/>
    </contour>
  </outline>
</glyph>
<glyph name="perthousand" format="1">
  <advance width="1054"/>
  <unicode hex="2030"/>
  <outline>
    <contour>
      <point x="296" y="494" type="curve" smooth="yes"/>
      <point x="296" y="354"/>
      <point x="246" y="275"/>
      <point x="169" y="275" type="curve" smooth="yes"/>
      <point x="92" y="275"/>
      <point x="45" y="352"/>
      <point x="45" y="492" type="curve" smooth="yes"/>
      <point x="45" y="633"/>
      <point x="93" y="711"/>
      <point x="171" y="711" type="curve" smooth="yes"/>
      <point x="249" y="711"/>
      <point x="296" y="634"/>
    </contour>
    <contour>
      <point x="592" y="700" type="line"/>
      <point x="224" y="0" type="line"/>
      <point x="159" y="0" type="line"/>
      <point x="527" y="700" type="line"/>
    </contour>
    <contour>
      <point x="1018" y="208" type="curve" smooth="yes"/>
      <point x="1018" y="67"/>
      <point x="968" y="-11"/>
      <point x="891" y="-11" type="curve" smooth="yes"/>
      <point x="814" y="-11"/>
      <point x="767" y="65"/>
      <point x="767" y="206" type="curve" smooth="yes"/>
      <point x="767" y="347"/>
      <point x="815" y="425"/>
      <point x="893" y="425" type="curve" smooth="yes"/>
      <point x="972" y="425"/>
      <point x="1018" y="348"/>
    </contour>
    <contour>
      <point x="708" y="208" type="curve" smooth="yes"/>
      <point x="708" y="67"/>
      <point x="658" y="-11"/>
      <point x="581" y="-11" type="curve" smooth="yes"/>
      <point x="504" y="-11"/>
      <point x="456" y="65"/>
      <point x="456" y="206" type="curve" smooth="yes"/>
      <point x="456" y="347"/>
      <point x="505" y="425"/>
      <point x="583" y="425" type="curve" smooth="yes"/>
      <point x="661" y="425"/>
      <point x="708" y="348"/>
    </contour>
    <contour>
      <point x="234" y="492" type="curve" smooth="yes"/>
      <point x="234" y="595"/>
      <point x="210" y="653"/>
      <point x="169" y="653" type="curve" smooth="yes"/>
      <point x="129" y="653"/>
      <point x="107" y="597"/>
      <point x="107" y="494" type="curve" smooth="yes"/>
      <point x="107" y="391"/>
      <point x="130" y="333"/>
      <point x="171" y="333" type="curve" smooth="yes"/>
      <point x="212" y="333"/>
      <point x="234" y="392"/>
    </contour>
    <contour>
      <point x="956" y="206" type="curve" smooth="yes"/>
      <point x="956" y="309"/>
      <point x="932" y="367"/>
      <point x="891" y="367" type="curve" smooth="yes"/>
      <point x="851" y="367"/>
      <point x="829" y="311"/>
      <point x="829" y="208" type="curve" smooth="yes"/>
      <point x="829" y="104"/>
      <point x="852" y="47"/>
      <point x="893" y="47" type="curve" smooth="yes"/>
      <point x="934" y="47"/>
      <point x="956" y="106"/>
    </contour>
    <contour>
      <point x="646" y="206" type="curve" smooth="yes"/>
      <point x="646" y="309"/>
      <point x="622" y="367"/>
      <point x="581" y="367" type="curve" smooth="yes"/>
      <point x="541" y="367"/>
      <point x="519" y="311"/>
      <point x="519" y="208" type="curve" smooth="yes"/>
      <point x="519" y="104"/>
      <point x="542" y="47"/>
      <point x="583" y="47" type="curve" smooth="yes"/>
      <point x="624" y="47"/>
      <point x="646" y="106"/>
    </contour>
  </outline>
</glyph>
<glyph name="guilsinglleft" format="1">
  <advance width="286"/>
  <unicode hex="2039"/>
  <outline>
    <contour>
      <point x="252" y="0" type="line"/>
      <point x="179" y="0" type="line"/>
      <point x="19" y="262" type="line"/>
      <point x="179" y="525" type="line"/>
      <point x="252" y="525" type="line"/>
      <point x="93" y="263" type="line"/>
    </contour>
  </outline>
</glyph>
<glyph name="guilsinglright" format="1">
  <advance width="286"/>
  <unicode hex="203A"/>
  <outline>
    <contour>
      <point x="266" y="263" type="line"/>
      <point x="106" y="0" type="line"/>
      <point x="33" y="0" type="line"/>
      <point x="193" y="262" type="line"/>
      <point x="33" y="525" type="line"/>
      <point x="106" y="525" type="line"/>
    </contour>
  </outline>
</glyph>
<glyph name="fraction" format="1">
  <advance width="383"/>
  <unicode hex="2044"/>
  <outline>
    <contour>
      <point x="424" y="700" type="line"/>
      <point x="30" y="0" type="line"/>
      <point x="-42" y="0" type="line"/>
      <point x="352" y="700" type="line"/>
    </contour>
  </outline>
</glyph>
<glyph name="Euro" format="1">
  <advance width="438"/>
  <unicode hex="20AC"/>
  <outline>
    <contour>
      <point x="120" y="252" type="line"/>
      <point x="133" y="118"/>
      <point x="177" y="54"/>
      <point x="239" y="54" type="curve" smooth="yes"/>
      <point x="289" y="54"/>
      <point x="320" y="87"/>
      <point x="348" y="164" type="curve"/>
      <point x="403" y="137" type="line"/>
      <point x="373" y="48"/>
      <point x="322" y="-11"/>
      <point x="235" y="-11" type="curve" smooth="yes"/>
      <point x="112" y="-11"/>
      <point x="47" y="118"/>
      <point x="47" y="350" type="curve" smooth="yes"/>
      <point x="47" y="579"/>
      <point x="116" y="711"/>
      <point x="237" y="711" type="curve" smooth="yes"/>
      <point x="320" y="711"/>
      <point x="368" y="656"/>
      <point x="401" y="561" type="curve"/>
      <point x="341" y="533" type="line"/>
      <point x="307" y="619"/>
      <point x="281" y="646"/>
      <point x="233" y="646" type="curve" smooth="yes"/>
      <point x="173" y="646"/>
      <point x="134" y="583"/>
      <point x="120" y="457" type="curve"/>
      <point x="313" y="457" type="line"/>
      <point x="313" y="397" type="line"/>
      <point x="116" y="397" type="line"/>
      <point x="115" y="382"/>
      <point x="115" y="366"/>
      <point x="115" y="350" type="curve" smooth="yes"/>
      <point x="115" y="337"/>
      <point x="115" y="324"/>
      <point x="116" y="312" type="curve"/>
      <point x="313" y="312" type="line"/>
      <point x="313" y="252" type="line"/>
    </contour>
  </outline>
</glyph>
<glyph name="uni2117" format="1">
  <advance width="617"/>
  <unicode hex="2117"/>
  <outline>
    <contour>
      <point x="573" y="350" type="curve" smooth="yes"/>
      <point x="573" y="135"/>
      <point x="469" y="-11"/>
      <point x="308" y="-11" type="curve" smooth="yes"/>
      <point x="148" y="-11"/>
      <point x="45" y="135"/>
      <point x="45" y="350" type="curve" smooth="yes"/>
      <point x="45" y="565"/>
      <point x="148" y="711"/>
      <point x="308" y="711" type="curve" smooth="yes"/>
      <point x="469" y="711"/>
      <point x="573" y="565"/>
    </contour>
    <contour>
      <point x="525" y="350" type="curve" smooth="yes"/>
      <point x="525" y="537"/>
      <point x="444" y="666"/>
      <point x="308" y="666" type="curve" smooth="yes"/>
      <point x="172" y="666"/>
      <point x="92" y="537"/>
      <point x="92" y="350" type="curve" smooth="yes"/>
      <point x="92" y="163"/>
      <point x="172" y="34"/>
      <point x="308" y="34" type="curve" smooth="yes"/>
      <point x="444" y="34"/>
      <point x="525" y="163"/>
    </contour>
    <contour>
      <point x="427" y="433" type="curve" smooth="yes"/>
      <point x="427" y="354"/>
      <point x="377" y="317"/>
      <point x="316" y="317" type="curve" smooth="yes"/>
      <point x="273" y="317" type="line"/>
      <point x="273" y="151" type="line"/>
      <point x="225" y="151" type="line"/>
      <point x="225" y="546" type="line"/>
      <point x="320" y="546" type="line" smooth="yes"/>
      <point x="381" y="546"/>
      <point x="427" y="511"/>
    </contour>
    <contour>
      <point x="379" y="434" type="curve" smooth="yes"/>
      <point x="379" y="482"/>
      <point x="356" y="501"/>
      <point x="318" y="501" type="curve" smooth="yes"/>
      <point x="273" y="501" type="line"/>
      <point x="273" y="363" type="line"/>
      <point x="316" y="363" type="line" smooth="yes"/>
      <point x="357" y="363"/>
      <point x="379" y="384"/>
    </contour>
  </outline>
</glyph>
<glyph name="trademark" format="1">
  <advance width="559"/>
  <unicode hex="2122"/>
  <outline>
    <contour>
      <point x="219" y="660" type="line"/>
      <point x="139" y="660" type="line"/>
      <point x="139" y="304" type="line"/>
      <point x="95" y="304" type="line"/>
      <point x="95" y="660" type="line"/>
      <point x="16" y="660" type="line"/>
      <point x="16" y="700" type="line"/>
      <point x="219" y="700" type="line"/>
    </contour>
    <contour>
      <point x="523" y="304" type="line"/>
      <point x="482" y="304" type="line"/>
      <point x="482" y="537" type="line" smooth="yes"/>
      <point x="482" y="547"/>
      <point x="482" y="572"/>
      <point x="482" y="582" type="curve"/>
      <point x="480" y="567"/>
      <point x="474" y="547"/>
      <point x="468" y="527" type="curve" smooth="yes"/>
      <point x="396" y="294" type="line"/>
      <point x="326" y="527" type="line" smooth="yes"/>
      <point x="320" y="546"/>
      <point x="314" y="566"/>
      <point x="311" y="580" type="curve"/>
      <point x="311" y="572"/>
      <point x="311" y="547"/>
      <point x="311" y="537" type="curve" smooth="yes"/>
      <point x="311" y="304" type="line"/>
      <point x="270" y="304" type="line"/>
      <point x="270" y="700" type="line"/>
      <point x="317" y="700" type="line"/>
      <point x="379" y="493" type="line" smooth="yes"/>
      <point x="387" y="466"/>
      <point x="393" y="439"/>
      <point x="397" y="420" type="curve"/>
      <point x="401" y="440"/>
      <point x="407" y="466"/>
      <point x="415" y="493" type="curve" smooth="yes"/>
      <point x="476" y="700" type="line"/>
      <point x="523" y="700" type="line"/>
    </contour>
  </outline>
</glyph>
<glyph name="arrowupdn" format="1">
  <advance width="315"/>
  <unicode hex="2195"/>
  <outline>
    <contour>
      <point x="264" y="143" type="curve"/>
      <point x="266" y="140"/>
      <point x="265" y="138"/>
      <point x="262" y="134" type="curve" smooth="yes"/>
      <point x="158" y="-15" type="line"/>
      <point x="53" y="134" type="line"/>
      <point x="51" y="138"/>
      <point x="50" y="140"/>
      <point x="51" y="143" type="curve"/>
      <point x="52" y="145"/>
      <point x="55" y="147"/>
      <point x="59" y="145" type="curve"/>
      <point x="126" y="119" type="line"/>
      <point x="126" y="581" type="line"/>
      <point x="59" y="555" type="line"/>
      <point x="55" y="553"/>
      <point x="52" y="555"/>
      <point x="51" y="557" type="curve"/>
      <point x="50" y="560"/>
      <point x="51" y="562"/>
      <point x="53" y="566" type="curve"/>
      <point x="158" y="715" type="line"/>
      <point x="262" y="566" type="line" smooth="yes"/>
      <point x="265" y="562"/>
      <point x="266" y="560"/>
      <point x="264" y="557" type="curve"/>
      <point x="263" y="555"/>
      <point x="260" y="553"/>
      <point x="256" y="555" type="curve"/>
      <point x="189" y="581" type="line"/>
      <point x="189" y="119" type="line"/>
      <point x="256" y="145" type="line"/>
      <point x="260" y="147"/>
      <point x="263" y="145"/>
    </contour>
  </outline>
</glyph>
<glyph name="radical" format="1">
  <advance width="437"/>
  <unicode hex="221A"/>
  <outline>
    <contour>
      <point x="415" y="700" type="line"/>
      <point x="221" y="0" type="line"/>
      <point x="156" y="0" type="line"/>
      <point x="26" y="340" type="line"/>
      <point x="100" y="340" type="line"/>
      <point x="138" y="228" type="line" smooth="yes"/>
      <point x="151" y="189"/>
      <point x="176" y="114"/>
      <point x="186" y="74" type="curve"/>
      <point x="193" y="115"/>
      <point x="215" y="193"/>
      <point x="225" y="233" type="curve" smooth="yes"/>
      <point x="347" y="700" type="line"/>
    </contour>
  </outline>
</glyph>
<glyph name="fl" format="1">
  <advance width="482"/>
  <unicode hex="FB02"/>
  <outline>
    <contour>
      <point x="410" y="0" type="line"/>
      <point x="342" y="0" type="line"/>
      <point x="342" y="689" type="line"/>
      <point x="410" y="729" type="line"/>
    </contour>
    <contour>
      <point x="253" y="653" type="line"/>
      <point x="239" y="659"/>
      <point x="222" y="663"/>
      <point x="203" y="663" type="curve" smooth="yes"/>
      <point x="176" y="663"/>
      <point x="157" y="650"/>
      <point x="157" y="611" type="curve" smooth="yes"/>
      <point x="157" y="525" type="line"/>
      <point x="240" y="525" type="line"/>
      <point x="240" y="465" type="line"/>
      <point x="157" y="465" type="line"/>
      <point x="157" y="0" type="line"/>
      <point x="90" y="0" type="line"/>
      <point x="90" y="465" type="line"/>
      <point x="32" y="465" type="line"/>
      <point x="32" y="525" type="line"/>
      <point x="90" y="525" type="line"/>
      <point x="90" y="605" type="line" smooth="yes"/>
      <point x="90" y="691"/>
      <point x="133" y="726"/>
      <point x="196" y="726" type="curve" smooth="yes"/>
      <point x="222" y="726"/>
      <point x="238" y="723"/>
      <point x="253" y="718" type="curve"/>
    </contour>
  </outline>
</glyph>
<glyph name="a.salt" format="1">
  <advance width="423"/>
  <outline>
    <contour>
      <point x="359" y="0" type="line"/>
      <point x="292" y="0" type="line"/>
      <point x="292" y="41" type="line"/>
      <point x="266" y="13"/>
      <point x="230" y="-11"/>
      <point x="185" y="-11" type="curve" smooth="yes"/>
      <point x="91" y="-11"/>
      <point x="44" y="84"/>
      <point x="44" y="258" type="curve" smooth="yes"/>
      <point x="44" y="438"/>
      <point x="96" y="536"/>
      <point x="192" y="536" type="curve" smooth="yes"/>
      <point x="235" y="536"/>
      <point x="266" y="515"/>
      <point x="292" y="488" type="curve"/>
      <point x="292" y="525" type="line"/>
      <point x="359" y="525" type="line"/>
    </contour>
    <contour>
      <point x="292" y="98" type="curve"/>
      <point x="292" y="425" type="line"/>
      <point x="267" y="455"/>
      <point x="235" y="475"/>
      <point x="196" y="475" type="curve" smooth="yes"/>
      <point x="134" y="475"/>
      <point x="111" y="389"/>
      <point x="111" y="260" type="curve" smooth="yes"/>
      <point x="111" y="117"/>
      <point x="140" y="50"/>
      <point x="200" y="50" type="curve" smooth="yes"/>
      <point x="235" y="50"/>
      <point x="266" y="70"/>
    </contour>
  </outline>
</glyph>
<glyph name="macron" format="1">
  <advance width="395"/>
  <outline>
    <contour>
      <point x="320" y="618" type="line"/>
      <point x="74" y="618" type="line"/>
      <point x="74" y="677" type="line"/>
      <point x="320" y="677" type="line"/>
    </contour>
  </outline>
</glyph>
